<?xml version="1.0" standalone="no"?>
<!DOCTYPE svg PUBLIC "-//W3C//DTD SVG 20010904//EN"
 "http://www.w3.org/TR/2001/REC-SVG-20010904/DTD/svg10.dtd">
<svg version="1.0" xmlns="http://www.w3.org/2000/svg"
 width="2048.000000pt" height="2028.000000pt" viewBox="0 0 2048.000000 2028.000000"
 preserveAspectRatio="xMidYMid meet">
<g transform="translate(0.000000,2028.000000) scale(0.100000,-0.100000)"
fill="#ffffff" stroke="none">
<path d="M11820 20025 c-14 -8 -32 -14 -41 -15 -8 0 -28 -13 -44 -30 -15 -16
-42 -32 -59 -36 -17 -3 -45 -22 -62 -40 -21 -22 -41 -34 -58 -34 -20 0 -32 -8
-44 -30 -9 -17 -27 -33 -40 -36 -12 -4 -30 -17 -40 -29 -10 -13 -48 -36 -83
-52 -38 -18 -72 -41 -83 -57 -12 -19 -24 -26 -36 -23 -11 3 -24 -1 -31 -9 -6
-8 -18 -14 -25 -14 -8 0 -64 -50 -126 -111 -62 -61 -126 -116 -143 -123 -16
-7 -36 -25 -44 -39 -8 -14 -26 -30 -42 -36 -15 -5 -38 -24 -51 -41 -12 -18
-35 -38 -50 -46 -15 -8 -35 -33 -46 -57 -25 -56 -47 -77 -82 -77 -21 0 -30 -7
-40 -30 -7 -17 -30 -46 -51 -64 -22 -18 -39 -39 -39 -47 0 -8 -24 -35 -54 -61
-29 -26 -67 -68 -85 -94 -17 -26 -44 -55 -61 -65 -16 -10 -30 -26 -30 -34 0
-8 -19 -34 -41 -57 -23 -24 -49 -54 -58 -68 -9 -14 -35 -49 -58 -78 -24 -29
-43 -59 -43 -67 0 -7 -11 -27 -25 -43 -14 -17 -25 -34 -25 -39 0 -5 -12 -20
-26 -34 -14 -13 -39 -50 -55 -81 -16 -31 -37 -65 -47 -75 -11 -10 -22 -34 -26
-53 -3 -19 -19 -47 -33 -63 -28 -28 -44 -55 -106 -182 -19 -38 -51 -95 -71
-125 -20 -30 -36 -62 -36 -70 0 -9 -20 -56 -44 -105 -78 -160 -96 -202 -96
-217 0 -20 -53 -144 -81 -193 -16 -27 -20 -45 -15 -78 7 -47 0 -63 -35 -80
-26 -14 -37 -42 -38 -104 -1 -23 -10 -62 -20 -85 -10 -24 -24 -65 -29 -93 -13
-62 -40 -163 -51 -190 -12 -28 -31 -135 -31 -172 0 -17 -5 -33 -11 -35 -6 -2
-14 -30 -19 -63 -4 -33 -14 -85 -23 -115 -8 -30 -18 -100 -21 -155 -4 -54 -9
-110 -13 -123 -4 -19 -2 -23 12 -20 28 5 36 -44 33 -212 -4 -210 -22 -202 -26
13 -2 133 -5 167 -16 167 -8 0 -17 -7 -20 -16 -9 -23 -6 -725 3 -748 10 -27
17 -11 25 56 7 55 19 78 30 60 16 -26 9 -188 -9 -216 -24 -37 -24 -169 1 -242
9 -26 17 -79 19 -117 2 -52 7 -71 21 -81 14 -11 17 -25 16 -62 -2 -27 4 -74
13 -104 9 -30 20 -74 26 -97 14 -66 27 -124 37 -168 5 -22 16 -61 25 -86 9
-26 13 -56 10 -68 -3 -11 0 -28 7 -36 7 -8 15 -41 19 -72 5 -50 9 -58 31 -63
29 -7 38 -44 39 -149 1 -45 6 -70 17 -82 9 -10 20 -35 25 -56 13 -65 41 -137
60 -159 11 -11 19 -28 19 -37 0 -29 28 -125 48 -164 11 -21 28 -65 38 -98 10
-33 21 -64 25 -70 4 -5 10 -25 14 -42 3 -18 15 -39 24 -45 24 -17 41 -51 41
-81 0 -14 7 -41 15 -60 8 -20 15 -47 15 -60 0 -13 9 -32 20 -42 11 -10 20 -27
20 -38 0 -11 14 -44 31 -74 36 -62 51 -175 31 -216 -29 -56 -67 -337 -87 -642
-4 -60 -12 -116 -18 -123 -12 -15 -38 -185 -41 -267 -3 -91 -27 -237 -42 -260
-7 -11 -16 -63 -19 -115 -4 -52 -9 -102 -13 -110 -9 -23 -13 -65 -15 -175 -2
-77 -6 -107 -19 -128 -11 -16 -18 -46 -18 -79 -1 -29 -7 -82 -15 -118 -8 -36
-14 -97 -15 -136 0 -57 -4 -74 -20 -89 -13 -12 -17 -25 -14 -44 3 -14 -2 -53
-10 -86 -9 -32 -16 -85 -16 -117 0 -47 -4 -60 -20 -70 -16 -10 -20 -24 -20
-65 0 -29 -6 -70 -14 -90 -26 -70 -37 -253 -16 -278 7 -8 10 -24 8 -37 -4 -22
-5 -22 -17 6 -20 50 -36 16 -36 -78 0 -63 -4 -88 -16 -102 -22 -25 -37 -120
-27 -164 5 -19 6 -63 2 -98 l-6 -62 44 0 c24 0 48 4 55 8 23 14 53 112 53 172
0 50 3 61 21 71 14 7 19 17 16 30 -3 10 -1 22 4 25 5 3 9 25 9 50 0 30 5 46
15 50 21 9 21 129 -1 151 -28 28 -15 88 19 86 28 -2 39 31 18 53 -29 29 -23
88 13 124 34 33 35 37 29 87 -6 54 6 71 26 36 7 -14 13 -15 21 -7 9 9 8 18 -4
36 -20 30 -19 229 2 236 6 2 12 16 12 32 0 23 7 30 40 44 82 33 159 139 88
121 -61 -15 -117 123 -65 160 17 12 20 24 18 95 -3 120 9 150 63 150 82 0 96
-81 25 -143 -49 -42 -48 -68 3 -66 51 2 65 8 71 29 7 27 24 25 31 -4 3 -14 14
-27 25 -31 41 -13 32 -275 -12 -307 -13 -11 -17 -38 -21 -158 -10 -257 -11
-275 -24 -297 -15 -27 -20 -28 -43 -8 -15 14 -18 14 -32 0 -9 -8 -30 -15 -47
-15 -48 0 -39 -43 10 -50 33 -5 35 -7 38 -48 4 -56 -10 -72 -63 -72 -46 0 -95
45 -95 89 0 25 -18 37 -33 22 -31 -31 -4 -108 40 -113 21 -2 27 -9 28 -31 1
-31 20 -48 43 -40 34 13 46 -111 16 -169 -13 -24 -13 -35 -4 -58 7 -16 9 -42
5 -60 -4 -18 -2 -36 5 -45 15 -19 18 -171 3 -186 -8 -8 -15 -5 -28 15 -20 31
-48 19 -43 -18 2 -13 -5 -25 -17 -32 -22 -11 -24 -61 -3 -112 14 -36 26 -8 27
61 1 41 4 47 22 47 18 0 20 -4 15 -27 -3 -16 -9 -44 -13 -63 -3 -19 -12 -40
-19 -47 -8 -9 -10 -37 -7 -96 5 -79 4 -85 -17 -100 -21 -14 -23 -25 -25 -99
-2 -128 -12 -168 -42 -168 -25 0 -45 -31 -25 -38 7 -2 12 -15 12 -29 0 -30
-24 -26 -28 5 -3 18 -7 20 -22 12 -16 -9 -17 -19 -13 -91 6 -78 5 -82 -20
-105 -16 -15 -24 -30 -20 -40 4 -10 -4 -24 -23 -40 -31 -25 -20 -50 17 -39 43
14 62 -16 23 -34 -22 -10 -25 -16 -21 -40 5 -23 0 -34 -27 -60 -39 -38 -59
-39 -88 -6 -29 33 -38 32 -38 -8 0 -22 8 -41 21 -53 16 -15 20 -27 16 -56 -4
-28 0 -44 14 -62 10 -13 19 -31 19 -39 0 -8 9 -26 20 -40 32 -40 23 -87 -15
-84 -23 2 -74 -83 -75 -124 0 -31 -15 -39 -70 -39 -49 0 -57 -12 -55 -83 1
-47 5 -60 24 -73 12 -9 21 -23 20 -32 -3 -34 2 -42 25 -42 13 0 31 -3 40 -6
20 -8 21 -34 2 -34 -26 0 -29 -22 -6 -40 28 -21 13 -80 -20 -80 -37 0 -80 -57
-80 -105 0 -34 -5 -48 -20 -57 -12 -8 -20 -24 -20 -39 0 -32 -19 -50 -46 -43
-35 9 -49 -20 -19 -40 32 -21 32 -30 -1 -45 -22 -10 -24 -14 -13 -27 12 -14
15 -14 30 5 31 38 93 23 68 -17 -8 -13 -9 -24 -1 -37 12 -22 -14 -85 -34 -85
-23 0 -67 -51 -55 -63 6 -6 11 -22 11 -34 0 -22 -2 -23 -49 -17 -57 7 -72 -5
-41 -36 29 -29 29 -137 0 -170 -26 -30 -26 -60 0 -60 11 0 23 7 26 15 8 19 34
20 34 1 0 -7 -9 -16 -19 -19 -12 -3 -21 -15 -23 -33 -4 -39 -27 -42 -34 -5 -4
21 -12 31 -24 31 -23 0 -32 -24 -24 -67 5 -27 2 -41 -15 -63 -11 -16 -21 -44
-21 -63 0 -18 -7 -42 -15 -53 -22 -29 -18 -61 10 -80 32 -21 17 -44 -27 -44
-18 0 -37 -9 -50 -22 -13 -16 -21 -19 -25 -10 -16 40 -52 52 -77 26 -22 -22
-20 -40 10 -67 23 -21 25 -30 22 -88 l-3 -64 -39 -5 c-50 -6 -61 -30 -14 -30
44 0 58 -15 58 -61 0 -21 5 -39 11 -41 15 -5 32 -102 19 -106 -24 -8 -60 -58
-60 -83 0 -15 -12 -39 -30 -57 -16 -18 -30 -36 -30 -42 0 -21 -30 -9 -36 14
-7 29 1 46 22 46 19 0 19 54 -1 70 -8 7 -15 21 -15 32 0 35 -19 61 -36 47 -19
-15 -18 -84 1 -103 23 -23 18 -40 -15 -53 -29 -11 -30 -14 -31 -75 -1 -34 -3
-74 -4 -88 -12 -121 -9 -147 20 -189 32 -47 72 -55 68 -15 -1 12 7 30 18 40
11 10 29 36 40 58 11 23 29 57 39 76 11 19 20 49 20 67 0 34 32 117 49 127 6
4 11 29 11 55 0 41 4 51 25 65 14 9 25 25 25 35 0 23 35 107 47 112 13 6 43
78 43 105 0 14 8 41 19 62 10 20 28 70 39 111 12 40 28 81 37 91 8 9 15 33 15
53 0 21 9 54 20 74 11 21 20 49 20 63 0 14 9 39 20 55 11 17 20 42 20 57 0 15
7 31 16 36 14 8 15 14 4 46 -10 31 -10 40 3 54 15 18 24 52 35 142 6 44 11 55
27 58 30 5 45 31 45 76 0 22 7 47 15 56 15 16 31 83 39 155 2 17 11 47 20 67
9 21 16 54 16 74 0 20 16 78 36 128 20 50 37 107 39 126 4 45 31 143 50 179 8
16 19 81 24 147 9 109 11 120 35 139 19 15 26 33 32 75 4 30 11 63 16 74 6 10
12 57 14 104 3 75 6 88 29 112 22 23 26 38 30 106 2 43 11 104 20 134 9 30 23
84 32 120 8 36 22 89 31 117 9 32 12 68 8 91 -6 42 23 143 50 169 9 10 14 36
14 78 0 36 8 86 17 112 10 29 17 82 18 135 0 54 5 92 13 100 19 19 15 48 -7
48 -26 0 -43 24 -39 56 4 36 24 42 32 9 14 -56 46 -12 46 64 0 44 -3 51 -20
51 -11 0 -20 6 -20 14 0 21 27 27 45 10 16 -17 16 -18 19 131 1 33 9 62 24 87
17 27 22 50 22 90 -2 68 31 265 49 298 8 14 16 50 17 80 3 65 22 209 30 230 3
8 7 53 9 100 2 47 9 98 14 113 6 16 11 44 11 63 0 19 7 48 15 65 20 37 39 243
31 326 -4 42 -2 72 7 95 37 87 41 151 14 206 -7 15 -8 28 -2 36 48 65 49 67
50 165 0 53 5 105 12 116 6 11 16 88 22 170 7 83 16 175 21 206 7 36 7 73 0
108 -14 75 -13 88 11 112 20 20 21 29 18 221 l-3 201 39 28 c22 16 63 55 90
88 28 33 61 63 75 67 30 7 120 101 120 124 0 10 33 48 74 85 41 38 83 86 92
108 13 29 22 37 36 33 13 -3 22 3 28 19 5 13 21 31 35 41 14 9 25 20 25 25 0
5 43 58 96 117 53 59 100 117 105 130 5 13 17 22 30 22 24 0 48 26 49 51 0 9
11 24 25 33 14 10 27 30 31 51 4 22 17 44 36 58 63 48 111 101 130 144 14 31
29 49 49 56 17 7 33 24 41 42 6 16 36 60 65 97 29 37 53 76 53 88 0 13 11 26
34 37 27 13 35 23 40 54 3 22 17 48 30 61 14 13 30 34 35 48 6 14 31 57 56 95
25 39 49 80 55 92 5 12 27 48 48 80 53 78 82 137 82 167 0 14 10 33 25 44 14
11 25 29 25 39 0 28 29 84 57 110 14 14 23 34 23 52 0 16 5 33 10 36 6 3 10
14 10 24 0 10 8 29 18 42 11 13 22 40 26 59 3 19 22 64 40 100 42 80 88 208
80 221 -3 5 9 40 26 77 46 96 71 178 65 205 -5 18 0 28 19 40 17 11 27 29 31
54 17 115 30 172 46 205 13 24 19 59 19 100 0 35 7 81 15 103 8 22 14 59 15
82 0 56 15 94 34 87 11 -4 16 7 20 53 4 32 11 94 16 138 9 75 8 81 -11 97 -24
20 -11 88 16 88 24 0 33 31 40 138 4 56 11 102 16 102 12 0 12 627 0 634 -18
12 -21 -47 -14 -335 6 -292 4 -318 -26 -300 -25 16 -16 668 11 769 11 43 6
241 -7 262 -13 22 -25 -3 -25 -53 0 -64 -14 -93 -23 -48 -8 40 3 124 17 133
12 8 9 186 -4 203 -4 6 -11 40 -15 77 -3 37 -15 91 -26 120 -11 29 -27 91 -35
138 -9 47 -19 106 -24 132 -5 25 -16 60 -25 77 -12 24 -13 36 -5 52 9 16 8 23
-5 33 -11 8 -18 33 -22 73 -5 53 -10 64 -34 82 -25 19 -29 28 -29 70 0 57 -16
109 -41 134 -11 10 -19 32 -19 50 0 18 -9 64 -21 102 -11 39 -24 85 -29 103
-4 19 -15 41 -22 50 -8 9 -27 53 -43 97 -16 44 -37 91 -47 104 -10 13 -18 31
-18 40 0 24 -32 104 -50 126 -27 32 -60 91 -60 107 0 8 -11 32 -25 52 -14 20
-25 47 -25 60 0 12 -11 33 -25 46 -14 13 -25 31 -25 41 0 42 -72 62 -120 34z
m-63 -301 c64 -27 68 -31 68 -50 0 -48 46 -59 95 -23 32 25 60 19 60 -11 0
-17 -6 -20 -40 -20 -38 0 -40 -2 -40 -29 0 -39 20 -50 38 -23 19 28 59 28 89
0 32 -30 29 -59 -12 -95 -45 -40 -44 -53 6 -103 40 -39 41 -41 25 -65 -16 -24
-15 -25 25 -64 41 -39 42 -41 36 -94 -6 -65 -2 -74 43 -79 34 -3 35 -4 32 -40
-3 -35 -2 -37 31 -43 20 -4 45 -4 56 0 22 7 32 -37 12 -50 -19 -11 -25 -114
-8 -133 31 -34 49 -108 37 -150 -17 -54 -10 -97 15 -97 15 0 20 7 20 25 0 56
24 64 54 18 18 -30 19 -35 6 -55 -10 -15 -15 -50 -15 -106 0 -82 1 -84 28 -97
25 -11 26 -13 8 -24 -55 -33 -77 -67 -61 -92 8 -13 15 -39 15 -59 0 -25 7 -41
25 -57 30 -26 32 -63 5 -78 -11 -6 -20 -17 -20 -25 0 -8 9 -19 20 -25 13 -7
20 -21 20 -40 0 -17 4 -30 10 -30 30 0 35 -146 5 -163 -19 -10 -19 -31 0 -47
8 -7 15 -25 15 -41 0 -22 5 -29 20 -29 16 0 19 8 22 57 2 31 8 58 14 60 15 5
22 -43 16 -112 -4 -52 -5 -54 -36 -57 -30 -3 -31 -4 -28 -47 2 -33 -2 -49 -17
-65 -17 -18 -21 -39 -24 -121 l-5 -100 46 -42 c26 -24 43 -47 39 -55 -3 -8 8
-34 25 -59 19 -29 27 -50 23 -64 -13 -39 -26 -122 -35 -220 -5 -55 -12 -116
-16 -135 -4 -19 -6 -39 -5 -44 4 -17 -11 -47 -22 -43 -7 2 -14 34 -17 78 -4
57 -8 74 -20 74 -17 0 -16 -337 1 -343 12 -5 12 -45 -1 -58 -5 -5 -10 -29 -12
-54 -3 -44 -2 -45 29 -48 55 -5 54 -75 -3 -120 -39 -31 -43 -53 -14 -80 25
-23 17 -56 -11 -49 -27 7 -39 -14 -37 -64 3 -63 -20 -136 -54 -169 -18 -19
-28 -39 -28 -59 0 -20 -10 -40 -28 -59 -29 -29 -29 -30 -25 -135 2 -69 0 -108
-7 -112 -15 -9 -21 -2 -29 37 -4 20 -14 34 -25 36 -17 4 -18 -2 -11 -85 8
-106 0 -132 -46 -147 -29 -10 -34 -16 -32 -39 1 -19 -5 -32 -22 -43 -23 -15
-24 -19 -18 -96 5 -76 4 -81 -20 -104 -16 -15 -24 -30 -20 -42 3 -12 -3 -25
-15 -33 -15 -11 -19 -27 -21 -79 -2 -97 -22 -176 -45 -172 -42 7 -166 -113
-166 -161 0 -15 -6 -30 -14 -33 -9 -3 -16 -30 -21 -77 -6 -64 -10 -74 -41
-103 -37 -36 -42 -49 -19 -58 25 -9 17 -24 -22 -45 -58 -30 -103 -76 -103
-106 0 -29 -25 -95 -37 -95 -4 0 -17 12 -29 28 -21 26 -23 26 -30 7 -4 -11
-16 -28 -26 -38 -28 -27 -19 -49 30 -72 l42 -20 -48 -23 c-37 -17 -58 -22 -84
-17 -53 10 -100 -54 -63 -85 23 -19 18 -37 -20 -87 -19 -25 -35 -57 -35 -70 0
-21 -4 -24 -27 -21 -26 3 -29 -1 -46 -54 -20 -64 -25 -67 -52 -38 -27 30 -41
25 -96 -31 -47 -48 -49 -52 -34 -69 15 -17 15 -21 1 -49 -9 -16 -16 -36 -16
-44 0 -18 -36 -50 -85 -75 -22 -11 -62 -43 -90 -71 -30 -31 -57 -50 -67 -47
-10 2 -44 -23 -88 -64 -67 -63 -80 -90 -45 -90 16 0 26 -25 18 -45 -3 -9 3
-25 13 -37 19 -20 19 -21 0 -32 -10 -6 -33 -21 -52 -33 -36 -24 -49 -18 -56
27 -4 35 -32 32 -36 -4 -2 -19 -21 -48 -50 -78 -51 -54 -58 -57 -67 -28 -9 28
-26 25 -55 -11 -14 -17 -35 -35 -48 -40 -37 -14 -20 -33 42 -45 31 -6 59 -13
61 -16 11 -11 -18 -68 -34 -68 -21 0 -41 -19 -41 -38 0 -8 -9 -25 -20 -39 -11
-15 -18 -34 -15 -44 6 -19 -18 -49 -40 -49 -7 0 -15 -10 -17 -22 -3 -20 -12
-24 -73 -33 -54 -8 -71 -14 -73 -27 -2 -10 1 -18 6 -18 21 0 22 -33 2 -52 -31
-29 -25 -43 45 -110 l64 -62 -21 -23 c-20 -21 -22 -35 -23 -176 -2 -163 -7
-187 -35 -187 -34 0 -50 -12 -50 -38 0 -14 -7 -33 -16 -43 -13 -14 -17 -48
-20 -166 -4 -163 -1 -183 27 -183 23 0 24 -18 5 -65 -38 -90 -185 -76 -186 17
0 36 17 45 41 19 42 -45 78 -16 70 55 -7 58 -35 71 -70 33 -28 -30 -39 -18
-47 56 -4 34 -15 70 -26 84 -25 32 -23 53 7 79 20 18 25 31 25 70 0 111 12
174 31 169 29 -8 36 12 42 121 4 83 2 104 -9 109 -16 6 -21 168 -5 177 4 3 11
36 14 73 6 63 5 69 -16 85 l-22 17 30 31 c18 19 37 29 48 26 32 -8 48 21 42
76 -8 84 -11 88 -61 88 -24 0 -44 3 -45 8 0 4 -2 18 -3 31 -3 22 -23 44 -50
55 -6 2 -1 11 12 21 18 13 22 26 22 66 0 58 -19 63 -34 11 -15 -54 -60 -46
-79 16 -23 72 -30 141 -16 158 9 12 4 21 -27 51 -41 38 -44 58 -18 98 13 19
12 24 -6 40 l-20 18 20 22 20 22 -21 26 c-15 20 -19 35 -14 56 5 25 0 35 -40
73 -46 45 -46 46 -44 106 2 45 -2 64 -14 77 -10 9 -17 23 -17 31 0 8 -19 35
-41 59 -41 44 -41 46 -37 106 4 58 3 62 -21 72 -35 15 -41 26 -31 53 13 34 2
60 -35 77 -48 23 -59 88 -21 124 33 30 33 47 1 79 -14 14 -25 32 -25 40 0 8
-7 25 -15 38 -10 14 -17 54 -19 105 -2 54 -8 86 -16 91 -25 15 -26 116 -1 129
29 16 27 55 -4 75 -24 16 -25 22 -23 84 l3 67 -32 3 -33 3 0 65 c0 50 3 64 15
64 11 0 15 11 15 36 0 43 -34 47 -37 4 0 -14 -1 -31 -2 -38 -2 -24 -41 7 -41
32 0 61 12 86 40 86 36 0 43 10 23 32 -26 29 -31 156 -6 165 27 10 29 17 23
83 -5 50 -3 63 13 79 30 29 32 248 3 272 -15 13 -19 32 -22 103 -2 65 -7 92
-19 106 -13 14 -16 35 -15 92 2 40 -1 90 -5 111 -9 45 10 51 43 12 25 -29 44
-32 63 -9 19 23 14 251 -6 271 -20 19 -20 97 0 113 22 18 18 35 -10 54 -35 23
-32 37 25 88 54 49 63 80 29 98 -28 15 -20 45 12 46 51 2 71 52 29 74 -11 6
-20 17 -20 24 0 7 9 21 20 31 11 10 20 26 20 36 0 22 34 42 74 43 41 1 42 17
1 59 -19 20 -35 44 -35 55 0 10 -9 36 -19 58 -20 40 -17 69 4 41 15 -21 54
-22 61 -2 4 8 1 22 -6 30 -14 16 -6 100 10 110 5 3 15 -3 22 -15 26 -42 72 -2
82 72 5 33 13 51 27 59 18 9 20 17 15 57 -6 46 -5 48 44 97 54 53 57 60 35 89
-10 14 -11 24 -4 38 6 10 8 38 4 61 -4 32 -1 47 12 64 29 34 73 35 74 1 0 -27
50 -120 64 -122 21 -2 17 62 -4 74 -26 13 -27 31 -3 51 30 26 23 91 -11 107
-38 18 -37 56 2 76 16 9 31 22 34 31 5 11 21 15 62 15 63 0 77 21 23 36 -55
16 -46 97 14 142 10 7 18 19 18 27 0 7 12 36 26 64 25 48 29 51 66 51 37 0 40
3 59 45 16 36 25 45 45 45 14 0 32 6 40 13 45 36 52 47 47 66 -4 16 4 31 31
56 42 40 43 41 14 66 l-23 19 25 19 c14 11 36 23 50 26 14 4 34 15 45 25 11
10 31 20 45 22 17 2 31 15 44 41 10 21 51 71 91 111 65 66 73 78 77 120 5 39
13 54 45 85 22 20 46 50 54 66 18 38 38 38 59 0 20 -35 46 -35 73 1 14 18 25
22 43 18 34 -9 46 24 16 44 -29 19 -28 53 3 82 14 13 25 30 25 38 0 45 56 73
159 79 80 5 104 10 117 24 11 12 25 17 39 13 31 -8 39 10 20 40 -19 29 -11 50
17 43 13 -4 34 9 69 42 56 53 57 56 28 80 -26 21 -5 51 34 51 12 0 28 4 36 9
23 15 41 1 41 -30 0 -55 43 -25 77 54 14 31 36 34 90 11z m133 -5238 c0 -7 -7
-19 -15 -26 -8 -7 -15 -25 -15 -41 0 -15 -5 -31 -11 -35 -25 -15 -39 58 -19
97 12 22 60 26 60 5z m-2620 -33 c0 -52 -11 -113 -20 -113 -8 0 -20 130 -13
143 13 23 33 4 33 -30z m198 -792 c-2 -18 -9 -26 -23 -26 -20 0 -24 26 -10 64
9 23 36 -9 33 -38z m357 -2517 c-3 -152 -2 -156 20 -166 19 -9 21 -16 17 -58
-9 -100 21 -127 48 -44 11 32 15 34 53 34 66 0 77 -13 43 -49 -22 -23 -27 -35
-22 -58 15 -74 -2 -200 -29 -216 -10 -5 -15 -24 -15 -55 0 -88 -25 -92 -37 -6
-6 46 -40 95 -74 106 -18 6 -1 28 21 28 42 0 23 91 -31 148 l-35 37 6 110 c4
70 3 120 -4 138 -15 38 11 217 30 210 9 -3 12 -44 9 -159z m-135 -180 c0 -22
-4 -25 -27 -22 -39 4 -43 35 -6 41 15 2 29 5 31 6 1 0 2 -11 2 -25z m94 -264
c14 -14 -4 -30 -35 -30 -28 0 -41 25 -22 43 7 8 43 -1 57 -13z m314 -209 c2
-72 0 -92 -10 -89 -14 5 -33 150 -23 176 15 40 30 0 33 -87z m-78 14 c0 -41
-16 -66 -30 -45 -14 21 -12 74 2 88 16 16 28 -2 28 -43z m-600 -1070 c6 -17 5
-34 -4 -56 -10 -25 -14 -28 -20 -14 -8 22 -8 80 1 88 10 11 13 9 23 -18z m-42
-2328 c3 -22 -1 -27 -17 -27 -15 0 -21 6 -21 23 0 46 33 49 38 4z m-284 -1023
c9 -23 -3 -56 -17 -51 -22 7 -21 67 2 67 5 0 12 -7 15 -16z"/>
<path d="M12190 18791 c0 -74 14 -99 30 -56 20 52 10 125 -16 125 -11 0 -14
-17 -14 -69z"/>
<path d="M12305 18473 c9 -37 22 -50 36 -36 18 18 2 63 -22 63 -18 0 -20 -4
-14 -27z"/>
<path d="M12265 16090 c-8 -13 3 -30 20 -30 7 0 17 -9 20 -20 11 -36 35 -16
35 30 0 27 -61 43 -75 20z"/>
<path d="M11192 13698 c-18 -18 -14 -56 7 -68 48 -25 80 6 42 41 -11 11 -21
24 -21 29 0 14 -14 12 -28 -2z"/>
<path d="M5026 16395 c-15 -16 -28 -48 -35 -87 -7 -35 -20 -79 -30 -98 -10
-19 -22 -51 -26 -70 -4 -19 -22 -57 -40 -85 -18 -27 -35 -61 -39 -75 -19 -71
-30 -106 -38 -116 -19 -25 -38 -113 -38 -175 0 -51 -5 -72 -20 -92 -14 -18
-20 -40 -20 -79 0 -30 -9 -77 -21 -108 -13 -35 -19 -67 -15 -88 3 -23 -1 -46
-14 -70 -24 -44 -26 -97 -5 -106 17 -6 20 -63 5 -86 -9 -13 -12 -13 -24 3 -14
18 -15 16 -25 -20 -14 -48 -14 -130 -1 -138 15 -9 12 -57 -5 -79 -8 -11 -15
-32 -15 -46 0 -14 -5 -31 -11 -37 -7 -7 -11 -50 -9 -120 1 -59 1 -267 0 -460
-1 -264 1 -353 10 -353 7 0 14 9 17 20 3 11 9 20 14 20 13 0 11 -48 -6 -110
-23 -84 6 -216 30 -140 3 11 13 20 21 20 20 0 19 -102 -2 -142 -18 -35 -15
-141 5 -161 6 -6 11 -25 11 -43 0 -17 8 -42 19 -55 10 -13 21 -48 25 -78 4
-29 13 -63 21 -75 7 -11 17 -50 21 -86 3 -36 12 -71 18 -79 14 -17 85 -224 93
-269 3 -19 15 -39 29 -49 14 -9 24 -25 24 -39 0 -14 20 -68 45 -121 25 -53 45
-101 45 -108 0 -7 13 -29 29 -49 16 -20 32 -50 35 -67 3 -16 9 -43 12 -60 4
-19 14 -33 30 -39 25 -10 64 -76 64 -110 0 -28 43 -110 70 -135 12 -11 31 -36
41 -55 11 -19 33 -53 49 -75 16 -22 29 -46 30 -54 0 -7 11 -26 25 -43 14 -16
25 -36 25 -44 0 -8 11 -20 25 -26 14 -6 42 -39 64 -74 24 -38 56 -73 80 -89
26 -16 41 -33 41 -46 0 -16 73 -119 108 -151 54 -50 152 -164 152 -176 0 -6
12 -19 28 -29 39 -25 119 -108 127 -132 4 -14 15 -21 30 -21 19 0 30 -10 45
-40 11 -22 33 -46 48 -54 16 -8 33 -26 40 -40 6 -14 27 -33 46 -43 19 -10 59
-37 88 -60 79 -63 221 -169 246 -182 13 -7 22 -21 22 -36 0 -18 7 -26 27 -31
15 -4 81 -51 148 -104 138 -110 153 -120 218 -145 26 -10 47 -22 47 -26 0 -20
93 -101 131 -114 23 -8 52 -26 65 -40 13 -14 29 -25 37 -25 7 0 23 -14 35 -30
13 -16 31 -30 41 -30 10 0 25 -8 34 -18 23 -25 151 -112 166 -112 19 0 91 -39
91 -50 0 -5 24 -25 53 -44 33 -22 72 -63 107 -112 30 -42 72 -94 92 -116 21
-22 43 -59 50 -82 6 -22 26 -58 42 -78 73 -89 86 -106 95 -131 6 -16 23 -30
45 -38 26 -10 36 -19 36 -35 0 -12 22 -44 51 -75 28 -30 55 -64 60 -77 5 -12
17 -25 26 -28 44 -13 86 -40 93 -60 5 -12 13 -25 19 -28 5 -3 12 -20 16 -36 4
-17 20 -40 37 -53 17 -12 34 -31 39 -42 5 -11 23 -38 40 -60 16 -22 39 -55 51
-72 11 -18 26 -33 33 -33 8 0 31 -20 52 -45 20 -25 45 -47 55 -51 9 -3 40 -34
68 -70 28 -36 62 -69 76 -75 16 -6 31 -24 41 -49 18 -44 30 -51 35 -20 4 24
24 26 21 3 -1 -9 10 -25 23 -35 13 -11 24 -29 24 -41 0 -12 9 -35 20 -52 28
-42 26 -90 -5 -117 -16 -14 -25 -32 -25 -52 0 -17 -8 -44 -18 -61 -13 -21 -17
-43 -14 -72 3 -33 -2 -55 -24 -95 -15 -29 -31 -78 -35 -108 -9 -73 -25 -132
-54 -205 -13 -33 -31 -100 -40 -150 -10 -49 -23 -105 -31 -123 -8 -18 -14 -43
-14 -55 0 -13 -7 -32 -15 -43 -8 -10 -15 -40 -15 -65 0 -29 -6 -51 -15 -59 -8
-7 -15 -21 -15 -32 0 -10 -8 -33 -17 -51 -9 -18 -20 -59 -24 -92 -14 -111 -29
-176 -54 -226 -14 -26 -25 -58 -25 -69 0 -12 -11 -46 -25 -75 -13 -30 -31 -83
-39 -118 -8 -36 -27 -91 -41 -123 -15 -33 -31 -81 -36 -108 -5 -27 -15 -57
-23 -65 -7 -9 -17 -45 -20 -80 -5 -43 -16 -76 -33 -102 -26 -39 -30 -117 -8
-170 9 -23 -42 -81 -65 -74 -24 8 -28 0 -40 -86 -6 -40 -18 -84 -26 -97 -9
-14 -24 -53 -34 -88 -10 -35 -35 -94 -55 -131 -55 -102 -135 -339 -135 -398 0
-43 -16 -55 -75 -55 -53 0 -75 12 -75 41 0 27 -49 78 -83 87 -28 8 -32 12 -29
40 2 21 -5 44 -22 69 -14 21 -26 43 -26 49 0 6 -12 21 -26 35 -34 31 -49 62
-62 126 -6 28 -23 68 -37 88 -14 21 -30 56 -36 79 -6 22 -19 65 -30 94 -10 29
-19 67 -19 85 0 18 -10 52 -21 77 -11 25 -23 68 -26 95 -3 28 -18 74 -34 102
-16 29 -29 62 -29 72 0 11 -12 37 -26 58 -21 31 -24 44 -18 73 11 53 6 92 -16
122 -11 14 -24 46 -29 70 -6 26 -20 51 -36 64 -19 15 -28 35 -35 79 -6 38 -17
65 -29 75 -10 8 -22 26 -26 40 -6 23 -56 150 -76 195 -5 11 -25 45 -44 75 -18
30 -37 69 -41 85 -4 17 -17 46 -30 65 -13 19 -24 43 -24 52 0 11 -7 18 -19 18
-14 0 -20 10 -24 42 -3 23 -15 53 -26 67 -11 14 -30 45 -42 69 -11 23 -34 49
-50 57 -38 20 -53 49 -39 75 11 21 -23 73 -70 107 -10 7 -23 33 -29 58 -9 34
-17 46 -36 51 -23 6 -49 39 -87 110 -9 17 -32 41 -51 52 -23 13 -43 38 -61 76
-14 30 -35 60 -45 66 -11 5 -29 25 -41 44 -11 19 -31 36 -43 38 -12 2 -23 12
-27 25 -12 50 -201 232 -288 277 -17 9 -43 34 -57 56 -14 22 -38 46 -53 54
-16 8 -51 35 -80 61 -28 25 -73 58 -99 71 -26 14 -64 41 -83 59 -19 18 -50 36
-68 40 -18 4 -36 14 -39 23 -9 25 -44 62 -59 62 -7 0 -34 11 -60 25 -26 14
-54 25 -64 25 -9 0 -31 11 -49 24 -18 13 -47 30 -64 37 -18 7 -45 23 -62 35
-16 12 -40 25 -51 28 -12 4 -29 15 -39 26 -10 11 -28 20 -39 20 -12 0 -29 7
-39 15 -10 7 -42 19 -70 25 -29 7 -66 21 -83 31 -17 11 -40 19 -51 19 -11 0
-47 11 -81 25 -34 14 -77 25 -97 25 -20 0 -57 12 -84 27 -43 25 -53 27 -80 16
-25 -9 -33 -8 -42 4 -24 28 -66 44 -93 33 -48 -18 -90 -15 -122 9 -23 16 -48
23 -100 26 -38 2 -122 9 -186 14 -201 19 -510 16 -603 -5 -49 -12 -109 -17
-156 -16 -53 2 -88 -2 -118 -14 -31 -12 -60 -15 -106 -12 -45 4 -67 2 -77 -8
-7 -7 -45 -20 -85 -28 -39 -8 -85 -22 -101 -30 -17 -9 -53 -18 -82 -21 -30 -3
-62 -13 -77 -25 -18 -14 -41 -20 -77 -20 -30 0 -60 -6 -72 -15 -10 -8 -26 -15
-35 -15 -29 0 -99 -118 -99 -167 0 -15 11 -50 25 -77 14 -27 25 -66 25 -85 1
-20 12 -67 26 -106 14 -38 30 -88 35 -110 11 -46 46 -122 60 -131 5 -3 9 -21
9 -39 0 -19 6 -54 14 -77 8 -24 17 -58 20 -77 2 -18 14 -43 25 -55 12 -12 21
-31 21 -43 0 -11 9 -28 20 -38 10 -9 24 -33 30 -51 6 -19 22 -54 36 -79 13
-26 24 -54 24 -65 0 -10 18 -47 40 -81 22 -35 63 -111 92 -169 29 -58 56 -107
62 -109 28 -11 55 -53 61 -93 6 -36 18 -57 66 -109 32 -35 59 -70 59 -77 0 -7
25 -38 55 -69 33 -35 59 -72 65 -93 7 -24 19 -41 38 -51 31 -15 84 -73 167
-184 28 -36 91 -102 140 -146 50 -44 95 -85 100 -91 75 -83 208 -208 227 -213
14 -4 35 -20 47 -36 12 -16 30 -29 40 -29 23 0 71 -37 71 -55 0 -12 24 -33
105 -92 16 -12 66 -40 110 -62 44 -21 100 -55 125 -74 25 -19 61 -42 80 -52
19 -10 44 -26 55 -36 63 -58 78 -69 98 -69 24 -1 74 -25 167 -82 34 -21 66
-38 72 -38 9 0 39 -12 113 -45 17 -7 44 -16 60 -20 17 -4 37 -13 46 -21 9 -8
39 -23 67 -33 29 -9 60 -25 70 -34 10 -9 27 -17 38 -17 10 0 55 -13 99 -29 44
-16 96 -35 115 -41 19 -7 49 -18 65 -26 17 -7 57 -16 90 -20 33 -3 69 -12 81
-19 37 -24 155 -53 299 -75 77 -11 171 -30 208 -42 49 -14 82 -18 113 -13 35
5 55 1 101 -19 33 -15 84 -28 118 -30 205 -14 252 -20 274 -35 18 -11 51 -16
121 -16 74 0 103 -5 123 -18 20 -13 56 -19 134 -23 60 -2 128 -11 153 -19 25
-8 57 -17 72 -20 20 -4 29 -14 40 -47 9 -29 24 -50 48 -66 38 -25 59 -61 60
-103 0 -14 11 -40 25 -59 13 -18 30 -49 36 -69 6 -20 22 -56 34 -81 13 -25 28
-56 35 -70 20 -45 36 -69 63 -94 15 -14 27 -31 27 -39 0 -7 13 -23 29 -35 54
-39 54 -171 2 -221 -16 -14 -33 -41 -40 -60 -6 -19 -17 -42 -25 -50 -27 -32
-112 -197 -114 -220 0 -13 -7 -31 -15 -40 -8 -9 -26 -38 -40 -66 -64 -128 -82
-157 -102 -165 -17 -6 -23 -19 -27 -52 -5 -41 -15 -61 -84 -166 -17 -26 -34
-57 -38 -68 -4 -12 -15 -29 -26 -39 -11 -10 -20 -28 -20 -40 0 -12 -9 -30 -21
-41 -12 -10 -32 -41 -46 -69 -14 -27 -38 -62 -54 -77 -16 -15 -29 -36 -29 -48
0 -11 -7 -23 -15 -27 -9 -3 -38 -40 -65 -82 -27 -42 -55 -83 -62 -91 -20 -23
-85 -131 -107 -177 -11 -23 -28 -46 -39 -52 -11 -6 -25 -24 -32 -40 -6 -17
-23 -37 -37 -46 -14 -9 -34 -36 -44 -60 -11 -24 -39 -61 -63 -82 -24 -21 -53
-57 -64 -80 -20 -38 -44 -67 -139 -169 -18 -19 -33 -41 -33 -48 0 -8 -16 -23
-35 -35 -19 -11 -40 -32 -45 -45 -5 -14 -19 -30 -32 -37 -26 -13 -158 -146
-158 -159 0 -4 -24 -32 -54 -63 -30 -30 -57 -64 -60 -75 -4 -11 -19 -25 -35
-30 -15 -5 -45 -33 -65 -61 -21 -28 -47 -54 -59 -57 -12 -3 -44 -32 -72 -64
-27 -32 -58 -61 -67 -65 -9 -3 -20 -15 -23 -26 -4 -10 -30 -34 -58 -53 -29
-18 -61 -43 -71 -55 -11 -11 -25 -21 -33 -21 -7 0 -21 -16 -30 -35 -10 -20
-27 -38 -39 -41 -12 -3 -36 -23 -53 -45 -18 -21 -40 -39 -50 -39 -20 0 -44
-23 -35 -33 14 -14 -8 -56 -40 -75 -45 -27 -62 -61 -75 -152 -9 -71 -9 -75 15
-103 13 -15 27 -46 30 -68 6 -35 11 -40 45 -49 22 -6 40 -18 44 -29 9 -29 41
-53 82 -62 21 -4 50 -11 64 -14 58 -15 188 33 246 91 29 28 65 55 79 58 35 9
129 78 218 161 27 25 57 45 67 45 10 0 21 12 27 29 6 17 23 36 39 44 16 8 52
41 81 74 123 136 157 173 165 173 4 0 43 36 88 80 44 44 85 80 90 80 6 0 17
16 25 35 8 19 27 41 44 50 17 9 30 20 30 26 0 5 18 27 40 49 22 22 40 45 40
53 0 7 45 59 100 116 55 56 100 108 100 115 0 7 7 19 16 26 24 21 101 125 108
148 4 11 18 27 31 36 14 9 25 22 25 29 0 8 11 24 25 37 14 13 25 29 25 36 0 7
8 19 18 26 10 7 44 50 76 94 32 45 68 86 81 92 16 8 26 23 31 47 3 19 10 38
15 41 5 3 9 12 9 20 0 8 42 66 94 129 79 96 96 124 106 168 13 63 34 97 60 97
13 0 22 9 26 27 3 16 9 42 13 58 4 18 17 35 34 43 18 9 27 21 27 37 0 14 8 29
20 35 11 6 31 35 46 66 14 30 48 83 75 116 27 34 50 66 50 72 1 6 2 27 3 46 1
30 5 35 27 38 22 3 27 9 31 40 3 21 29 79 57 130 28 51 51 97 51 103 0 6 9 22
20 36 11 14 20 31 20 37 0 6 14 31 30 56 16 25 37 66 46 92 8 25 22 52 30 58
7 7 14 26 14 41 0 22 6 32 25 39 22 8 25 16 25 55 0 24 7 63 16 86 14 34 15
42 3 49 -23 15 -36 -8 -44 -75 -7 -69 -20 -89 -40 -62 -16 22 -25 21 -41 0
-11 -17 -14 -16 -38 10 -22 23 -29 26 -46 17 -12 -6 -29 -9 -39 -5 -42 13 -99
-127 -61 -150 14 -9 58 27 62 50 2 14 12 21 36 23 45 4 55 -24 19 -50 -15 -11
-27 -26 -27 -33 0 -7 -8 -28 -17 -47 -9 -18 -19 -40 -23 -48 -4 -8 -16 -16
-28 -18 -21 -3 -32 -28 -28 -65 2 -20 -1 -22 -30 -19 -23 3 -38 -2 -53 -17
-25 -25 -42 -26 -82 -5 -39 20 -42 17 -43 -56 -2 -73 -19 -96 -44 -62 -33 43
-97 -1 -72 -48 9 -16 18 -20 36 -16 17 5 27 1 36 -14 7 -11 18 -20 25 -20 23
0 25 -22 4 -44 -14 -15 -22 -37 -23 -62 -1 -40 -29 -84 -54 -84 -23 0 -36 -40
-32 -100 5 -92 -62 -151 -111 -99 -26 29 -56 19 -47 -16 5 -19 1 -28 -19 -41
-17 -11 -25 -25 -25 -44 0 -15 -7 -34 -16 -41 -12 -10 -15 -24 -11 -52 6 -45
-5 -90 -27 -113 -9 -8 -16 -24 -16 -33 0 -12 -10 -21 -27 -24 -37 -8 -104 -73
-96 -93 6 -16 -43 -73 -64 -74 -6 0 -15 9 -18 21 -14 43 -30 11 -35 -69 -6
-91 -22 -122 -66 -122 -46 0 -63 -16 -61 -59 1 -31 -3 -43 -23 -59 -21 -17
-23 -23 -12 -34 12 -11 16 -9 29 10 17 24 53 30 53 8 0 -35 -25 -74 -71 -110
-45 -36 -63 -66 -39 -66 22 0 7 -36 -36 -86 -53 -62 -61 -65 -97 -24 -41 46
-84 35 -71 -17 4 -14 -5 -27 -28 -45 -73 -57 -110 -98 -104 -114 9 -22 -11
-44 -39 -44 -13 0 -38 -12 -55 -26 -31 -26 -31 -27 -11 -45 19 -18 19 -20 3
-60 -9 -23 -23 -43 -31 -46 -9 -2 -24 -9 -33 -14 -10 -5 -24 -9 -32 -9 -23 0
-36 -24 -41 -79 -6 -64 -19 -89 -51 -101 -13 -5 -29 -21 -36 -35 -6 -14 -17
-25 -25 -25 -31 0 -91 -40 -103 -70 -12 -30 -78 -90 -98 -90 -6 0 -12 -12 -14
-27 -3 -24 -10 -28 -68 -43 -74 -18 -125 -42 -133 -65 -4 -8 -13 -15 -22 -15
-8 0 -15 -6 -15 -13 0 -15 -53 -81 -94 -116 -17 -15 -43 -39 -58 -55 -28 -28
-31 -29 -102 -23 -92 8 -109 14 -103 38 3 11 -7 34 -24 55 -33 42 -36 62 -13
105 8 17 13 37 10 45 -10 25 5 44 34 44 16 0 30 4 32 10 2 5 18 14 36 19 30 9
34 7 44 -15 14 -29 20 -30 43 -4 10 11 24 20 30 20 7 0 15 10 19 23 5 20 10
22 47 19 61 -6 68 10 26 53 -20 21 -42 35 -50 32 -53 -20 -43 58 11 84 40 18
52 35 52 72 0 26 22 38 34 18 3 -4 24 -11 47 -14 40 -5 45 -3 87 39 25 24 51
44 58 44 7 0 25 7 41 15 15 9 40 20 55 25 26 9 27 12 26 75 -1 66 -1 67 41
104 31 27 40 42 35 55 -8 20 10 36 42 36 31 0 45 19 31 41 -9 15 -7 23 16 47
15 15 27 32 27 38 0 18 68 76 75 63 16 -24 8 -89 -11 -104 -15 -11 -17 -16 -6
-27 10 -10 25 0 77 55 70 72 75 82 45 92 -43 14 14 69 82 79 58 9 67 20 37 52
-28 30 -36 30 -59 2 -17 -21 -19 -22 -26 -5 -15 39 86 119 116 92 25 -22 42
-11 30 19 -11 30 4 46 45 46 20 0 35 7 43 21 9 13 20 19 32 16 20 -5 80 41 80
61 0 6 -12 14 -27 17 -58 13 -83 56 -49 85 18 14 46 -1 46 -26 0 -8 7 -14 15
-14 10 0 15 10 15 34 0 21 6 36 15 40 20 7 19 36 -1 51 -21 15 34 65 72 65 21
0 24 5 24 34 0 37 21 62 45 52 10 -3 15 -18 15 -41 0 -61 34 -43 40 21 4 40
12 58 38 83 38 39 39 42 10 60 l-22 14 22 17 c27 23 27 27 0 50 -23 19 -23 19
-3 33 63 46 71 56 53 71 -37 28 0 73 75 91 21 6 26 11 21 24 -12 28 -7 59 16
90 22 32 64 43 72 19 8 -24 39 0 32 26 -4 18 -1 28 15 38 12 7 21 23 21 35 0
12 11 34 24 48 14 15 22 33 19 44 -3 13 2 21 14 25 21 7 73 79 73 100 0 7 9
23 20 36 31 36 22 63 -25 72 -29 5 -26 42 3 46 21 3 22 7 16 52 -6 46 -4 51
32 96 28 34 38 56 39 82 0 19 6 37 12 39 9 3 13 -9 13 -41 0 -37 5 -48 24 -61
23 -15 56 -12 56 6 0 19 31 21 45 3 19 -26 35 -8 37 42 0 29 7 44 26 60 l26
21 -27 18 c-53 34 -28 89 35 79 61 -10 136 81 95 115 -19 15 -37 -5 -37 -42 0
-26 -2 -28 -37 -25 l-37 3 2 68 1 67 -35 15 c-32 13 -35 18 -30 42 4 16 7 69
8 118 1 72 6 100 24 138 l24 48 -39 37 c-39 37 -39 37 -36 105 4 80 10 90 35
60 23 -29 141 -34 166 -8 21 20 31 19 39 -5 9 -28 24 -25 31 8 10 48 12 51 52
76 31 19 48 43 78 105 38 77 40 80 69 75 55 -10 99 50 92 124 -6 71 2 82 58
82 67 0 88 42 38 75 l-26 18 23 17 c26 20 20 40 -13 40 -28 0 -81 55 -73 75 3
8 15 15 27 15 48 0 111 58 90 84 -5 6 -12 30 -16 52 -6 38 -4 43 24 63 17 12
28 28 25 35 -3 7 6 30 20 51 33 48 33 51 -5 64 -23 8 -30 15 -25 27 3 8 6 22
6 29 0 8 9 22 19 32 11 10 21 29 23 42 3 25 18 37 58 45 24 5 25 8 25 77 0 49
-4 74 -12 76 -18 6 -16 33 1 33 8 0 16 -7 20 -15 6 -18 47 -20 63 -4 6 6 9 18
6 26 -3 9 13 32 41 59 42 42 46 48 40 82 -5 31 -2 40 19 59 17 14 24 28 20 41
-3 14 1 22 16 27 12 3 21 12 22 18 4 47 -6 94 -24 119 -21 29 -21 29 -2 65 12
22 20 57 20 90 1 51 4 57 43 92 27 24 42 47 42 61 0 16 22 45 65 88 80 78 83
104 15 114 -32 4 -42 62 -14 82 26 20 8 36 -42 36 -58 0 -62 34 -8 78 34 28
35 31 26 66 -10 34 -9 37 18 51 35 18 41 35 30 77 -9 29 -7 35 16 56 20 19 24
30 19 52 -9 42 12 113 32 106 29 -11 93 65 93 112 0 31 5 43 25 56 50 33 59
59 40 117 -13 38 -15 57 -7 74 18 38 2 36 -42 -6 l-41 -40 -12 28 c-13 32 -7
94 13 135 22 43 18 115 -6 128 -16 8 -20 21 -20 58 -1 44 -4 49 -45 80 -59 45
-96 145 -73 196 22 48 13 69 -27 63 -46 -7 -58 10 -50 66 13 82 -32 120 -80
67 -40 -44 -76 -20 -79 54 -1 25 -9 35 -36 48 -20 10 -37 28 -40 40 -5 20 -37
44 -98 74 -7 4 -18 2 -25 -5 -12 -12 -117 -15 -117 -3 0 4 9 15 20 25 11 9 17
23 14 32 -3 8 4 36 17 61 l22 47 -24 19 c-13 10 -46 28 -72 40 -67 29 -91 85
-47 108 11 6 20 17 20 25 0 22 38 18 50 -5 8 -14 19 -20 38 -18 24 3 27 -1 32
-32 4 -31 9 -35 38 -38 18 -2 36 -10 39 -18 7 -19 52 -18 60 2 10 27 -11 49
-47 50 -51 0 -47 20 8 48 51 26 92 18 92 -18 0 -7 11 -23 25 -36 44 -41 32
-112 -20 -122 -26 -4 -31 -103 -5 -103 10 0 16 12 18 32 4 43 42 55 75 25 12
-11 32 -23 45 -27 12 -3 27 -15 32 -25 5 -10 22 -20 36 -22 29 -3 54 -60 54
-120 0 -27 7 -32 42 -29 9 1 23 -8 32 -20 32 -47 132 -29 119 20 -4 16 1 21
23 26 47 11 54 14 54 25 0 5 -22 10 -50 10 -45 0 -51 3 -66 31 -8 17 -31 44
-49 60 -18 17 -45 49 -59 73 -15 25 -38 48 -55 56 -20 8 -37 26 -47 50 -12 26
-28 42 -55 54 -22 10 -44 27 -51 39 -6 12 -40 49 -75 82 -39 38 -63 68 -63 82
0 20 -39 76 -92 133 -13 14 -35 42 -50 62 -15 21 -41 44 -56 52 -19 10 -40 37
-62 81 -29 59 -87 125 -109 125 -5 0 -18 16 -30 35 -11 19 -27 35 -36 35 -45
0 -55 95 -41 410 18 432 9 1717 -13 1758 -8 16 -17 154 -21 330 0 13 -11 33
-25 46 -24 22 -25 27 -17 87 12 90 5 156 -20 173 -16 12 -18 21 -13 62 5 35 2
61 -11 94 -10 25 -18 70 -18 101 -1 32 -7 63 -15 73 -15 18 -24 58 -42 186 -6
41 -17 89 -26 105 -8 17 -17 57 -20 90 -6 85 -11 105 -28 105 -25 0 -39 42
-41 123 -1 63 -5 82 -22 100 -11 12 -25 42 -31 67 -6 25 -20 63 -30 85 -10 22
-30 65 -45 96 -14 31 -26 66 -26 78 0 26 -42 112 -64 130 -9 8 -16 28 -16 46
0 36 -32 119 -49 130 -6 3 -21 25 -32 48 -12 23 -31 53 -44 67 -13 14 -41 68
-64 120 -36 81 -54 108 -123 180 -51 53 -82 94 -83 110 -5 45 -64 135 -141
213 -23 24 -49 58 -59 77 -21 40 -82 114 -96 116 -5 1 -13 2 -18 3 -6 0 -19
18 -31 39 -12 22 -35 47 -51 56 -16 9 -29 20 -29 24 0 4 -20 28 -44 55 -25 26
-47 55 -50 65 -3 9 -19 25 -36 34 -16 9 -30 24 -30 32 0 8 -10 18 -21 21 -12
4 -59 45 -104 91 -51 50 -95 86 -112 90 -57 12 -63 16 -63 34 0 36 -12 50 -44
50 -24 0 -41 11 -75 45 -24 25 -65 57 -90 72 -25 14 -68 45 -96 68 -27 23 -67
48 -88 54 -23 8 -43 23 -52 40 -9 19 -27 31 -57 40 -24 7 -57 21 -74 32 -17
10 -40 19 -50 19 -46 0 -185 67 -261 125 -25 19 -55 35 -67 35 -12 0 -31 7
-43 15 -12 8 -50 22 -85 30 -34 8 -85 26 -113 40 -69 34 -138 34 -169 0z m227
-213 c29 -31 -23 -58 -63 -32 -12 7 -12 12 4 29 23 26 38 26 59 3z m269 -32
c28 -25 31 -31 18 -40 -22 -15 -31 -12 -37 10 -4 14 -14 20 -34 20 -29 0 -44
13 -34 30 12 19 55 10 87 -20z m-375 -90 c7 0 21 9 32 21 23 25 41 18 41 -16
0 -43 45 -40 51 4 5 33 73 52 152 44 52 -5 63 -11 102 -50 41 -41 46 -43 84
-37 39 6 40 6 50 -31 5 -20 7 -43 4 -51 -7 -18 50 -74 76 -74 11 0 29 -10 40
-21 13 -15 26 -19 38 -15 18 8 2 28 -30 39 -18 6 3 27 28 27 33 0 55 -10 55
-25 0 -10 10 -12 35 -8 27 4 36 2 41 -12 5 -13 14 -15 41 -10 43 8 60 -5 73
-56 12 -42 39 -57 85 -45 18 5 28 1 37 -14 8 -12 24 -20 39 -20 35 0 55 -23
35 -39 -8 -7 -20 -11 -28 -10 -25 3 -38 -1 -38 -13 0 -18 61 -67 76 -61 9 3
30 -11 54 -37 38 -41 41 -42 58 -27 10 10 24 17 30 17 15 0 52 -49 52 -71 0
-9 18 -35 39 -56 24 -24 40 -49 43 -68 4 -42 38 -48 38 -7 0 60 21 56 98 -21
39 -40 83 -80 97 -90 16 -11 25 -28 25 -45 1 -31 31 -72 54 -72 26 0 21 -64
-6 -83 -32 -21 -12 -40 42 -40 36 0 45 -5 72 -38 37 -46 45 -48 58 -13 13 33
34 26 38 -12 2 -21 -5 -38 -23 -58 -29 -32 -32 -52 -8 -78 23 -26 32 -23 49
17 16 38 37 44 66 18 24 -21 23 -43 -1 -43 -34 0 -34 -20 0 -51 18 -16 36 -29
41 -29 12 0 10 -28 -4 -36 -6 -4 -19 2 -29 14 -26 33 -49 28 -49 -9 0 -20 -8
-37 -22 -49 -22 -18 -22 -19 -4 -26 13 -5 23 -2 32 10 8 12 29 19 58 21 52 3
62 -10 51 -69 -7 -32 -4 -36 33 -60 47 -29 56 -41 56 -75 1 -34 24 -38 36 -7
14 38 25 32 50 -29 13 -32 30 -57 42 -61 10 -3 24 -17 30 -30 6 -13 15 -24 19
-24 10 0 32 -67 26 -83 -2 -6 3 -20 11 -30 26 -29 33 -116 10 -128 -24 -13
-23 -36 2 -49 12 -6 19 -19 17 -32 -1 -17 7 -27 35 -40 34 -16 45 -48 17 -48
-14 0 -10 -26 6 -40 8 -7 15 -28 15 -47 0 -55 43 -103 91 -103 37 0 39 -1 39
-33 0 -21 -7 -36 -20 -45 -27 -17 -25 -31 7 -43 35 -13 43 -26 43 -72 0 -21 7
-52 16 -70 27 -52 49 -288 32 -347 -6 -21 -3 -27 15 -35 17 -8 23 -20 25 -55
4 -50 16 -70 43 -70 28 0 34 -21 12 -39 -27 -21 -26 -129 0 -156 12 -11 17
-35 18 -73 3 -154 3 -156 22 -160 14 -3 17 4 17 32 0 35 13 55 25 36 10 -17 9
-71 -2 -78 -6 -4 -12 -38 -14 -77 l-4 -70 30 0 c34 0 48 -31 22 -50 -30 -22
-23 -300 8 -318 11 -6 14 -65 16 -320 2 -503 -1 -627 -17 -652 -22 -34 -17
-159 8 -191 29 -36 23 -159 -10 -203 -12 -17 -22 -36 -22 -44 0 -8 -9 -24 -20
-37 -23 -26 -19 -76 9 -119 14 -23 14 -25 -7 -39 -14 -9 -22 -25 -22 -43 0
-16 -7 -32 -17 -37 -21 -12 -27 -127 -7 -146 7 -7 14 -28 16 -47 2 -29 7 -34
31 -37 31 -4 33 5 16 74 -15 58 -3 234 16 234 21 0 27 -46 24 -195 -3 -166 -2
-161 -44 -169 -30 -6 -33 -10 -39 -51 -10 -65 2 -114 30 -127 13 -6 26 -19 29
-30 11 -34 37 -22 30 14 -6 26 -3 34 16 49 22 17 23 18 6 37 -16 18 -16 20 5
48 12 16 23 31 25 33 8 11 34 -25 29 -42 -2 -11 3 -25 15 -35 23 -20 25 -40 4
-48 -19 -8 -19 -23 1 -45 8 -9 18 -43 21 -75 3 -33 12 -68 19 -78 12 -17 11
-24 -3 -45 -15 -24 -15 -26 5 -39 29 -19 28 -53 -3 -80 -14 -12 -25 -28 -25
-35 0 -35 57 -50 80 -22 25 30 99 13 87 -20 -5 -11 6 -29 33 -55 29 -28 40
-48 40 -68 0 -19 8 -35 23 -46 21 -15 21 -16 5 -29 -10 -8 -18 -19 -18 -26 0
-18 -34 -13 -53 9 -9 11 -28 20 -43 20 -44 0 -62 17 -79 76 -13 47 -19 54 -35
49 -13 -4 -26 2 -42 21 -54 64 -58 67 -99 60 -42 -7 -67 23 -55 66 5 22 -19
48 -44 48 -22 0 -44 35 -36 56 3 8 16 14 29 14 26 0 97 60 97 82 0 42 -42 48
-76 11 -25 -27 -26 -27 -40 -8 -8 10 -14 24 -14 31 0 21 -79 56 -111 49 -22
-5 -31 -2 -41 14 -8 13 -23 21 -40 21 -38 0 -79 51 -72 89 9 41 -11 71 -45 71
-22 0 -30 6 -34 23 -14 54 -29 62 -71 33 -22 -14 -46 -26 -55 -26 -9 0 -33 -3
-53 -6 -45 -8 -47 0 -12 51 31 46 18 74 -17 36 l-22 -23 -21 24 c-11 14 -42
35 -67 48 -48 25 -92 88 -94 137 -2 44 -28 38 -49 -11 -3 -6 -20 6 -39 27 -34
36 -60 47 -72 27 -15 -25 -85 28 -85 65 0 23 -39 75 -55 75 -4 0 -13 -7 -20
-17 -13 -18 -35 -10 -35 13 0 8 9 14 21 14 34 0 23 62 -14 74 -42 15 -57 -7
-27 -39 29 -31 5 -47 -32 -21 -12 9 -39 16 -59 16 -28 0 -38 5 -47 24 -6 13
-29 31 -56 42 -55 23 -61 51 -20 89 32 30 26 60 -10 53 -29 -6 -92 53 -82 77
7 19 -98 125 -124 125 -9 0 -27 9 -39 19 -12 10 -30 17 -40 14 -12 -3 -26 6
-42 28 -43 57 -59 69 -87 69 -21 0 -44 17 -99 73 -77 78 -84 92 -85 166 0 45
-3 51 -44 86 -34 29 -42 42 -38 60 7 27 -18 49 -45 40 -13 -4 -24 1 -35 17
-12 17 -24 22 -50 20 -29 -3 -34 0 -40 23 -5 21 -12 25 -33 23 -27 -3 -57 52
-33 60 5 2 20 12 32 22 l23 18 -32 18 c-21 13 -31 26 -30 39 1 15 -9 25 -40
40 -34 16 -41 23 -37 40 7 27 -18 49 -44 41 -34 -11 -77 50 -58 79 13 20 13
25 1 35 -19 16 -19 36 0 44 24 9 18 36 -9 36 -31 0 -44 17 -55 76 -9 47 -38
84 -66 84 -7 0 -16 11 -19 24 -4 16 -15 25 -33 29 -36 7 -116 36 -126 46 -5 5
15 25 42 45 58 41 61 48 25 65 -24 11 -26 16 -21 53 5 38 2 44 -41 89 -45 46
-72 61 -72 39 0 -18 -29 -10 -45 13 -15 21 -14 23 12 45 l28 22 -24 19 c-17
13 -22 23 -17 39 6 17 2 24 -16 33 -61 29 -129 189 -80 189 11 0 25 -7 32 -15
18 -22 29 -19 67 20 38 39 36 55 -6 55 -31 0 -87 51 -76 69 3 7 -14 33 -40 59
-44 44 -46 49 -40 89 6 45 -9 63 -54 63 -30 0 -35 19 -7 29 23 9 24 13 22 80
-2 46 -8 75 -18 85 -31 30 -33 88 -4 111 31 25 33 38 5 57 -18 11 -21 24 -22
76 0 56 -2 63 -23 68 -12 3 -24 15 -27 26 -4 14 -12 19 -28 16 -19 -2 -24 3
-30 31 -10 46 -2 64 26 57 28 -7 39 14 21 40 -41 62 -41 178 0 238 11 17 11
23 0 40 -21 34 -22 299 0 320 12 13 17 35 17 82 0 53 3 68 18 77 23 15 27 101
5 122 -26 26 -32 136 -9 155 15 11 21 33 26 80 4 48 11 69 26 81 23 18 15 31
-26 43 -34 11 -48 91 -22 124 12 16 17 33 13 49 -4 14 -2 41 4 61 6 21 13 49
17 64 4 21 11 27 38 30 32 3 32 4 29 50 -2 38 1 49 18 61 17 12 21 24 19 54
-2 29 3 47 19 68 13 16 20 35 17 44 -14 33 -17 81 -7 81 6 0 12 -10 14 -22 2
-19 8 -22 33 -20 51 6 54 20 10 57 l-40 34 23 30 c12 17 22 36 22 43 0 8 7 23
15 35 11 15 14 34 9 61 -10 62 20 86 55 43 14 -17 31 -31 38 -31z m-409 -2681
c-2 -19 -7 -33 -13 -32 -14 3 -18 29 -10 60 9 37 27 14 23 -28z m-912 -4554
c10 -8 31 -15 46 -15 15 0 30 -4 33 -10 4 -6 55 -10 120 -10 111 0 115 -1 131
-25 9 -14 25 -25 36 -25 12 0 36 -16 55 -36 l34 -37 84 2 84 2 9 -33 c18 -63
57 -96 109 -90 40 4 48 2 66 -22 20 -24 26 -26 66 -18 52 9 64 28 27 42 -28
10 -33 24 -14 36 6 4 19 -2 29 -14 13 -17 28 -22 68 -22 l51 0 0 -35 c0 -50
40 -60 93 -23 15 11 20 10 31 -4 17 -24 33 -23 41 2 3 11 13 20 21 20 14 0 16
-5 18 -50 1 -18 7 -25 21 -25 16 0 19 6 17 28 -3 31 35 40 57 13 7 -8 26 -18
42 -21 48 -11 29 -35 -26 -35 -13 0 -27 -5 -31 -11 -9 -15 16 -29 42 -23 32 8
51 -21 25 -38 -43 -26 -27 -51 28 -43 46 6 51 5 67 -19 18 -28 59 -29 111 -4
43 21 56 4 50 -62 l-7 -61 30 -5 c16 -4 37 -15 46 -25 23 -25 33 -24 44 6 7
19 17 25 38 25 44 0 65 -20 54 -51 -13 -33 40 -91 73 -79 25 9 45 2 45 -16 0
-25 57 -73 79 -67 22 6 44 -49 34 -86 -8 -30 18 -37 39 -11 18 22 19 22 39 4
34 -31 41 -51 23 -69 -21 -21 -11 -48 16 -40 22 7 65 -24 109 -79 14 -17 60
-63 101 -101 55 -50 75 -75 76 -94 0 -27 43 -81 63 -81 6 0 11 15 11 34 0 44
9 66 26 66 9 0 14 -12 14 -35 0 -29 8 -43 40 -74 38 -36 47 -61 34 -95 -3 -9
-12 -16 -19 -16 -15 0 -38 -52 -33 -76 5 -29 26 -27 57 6 39 43 76 35 67 -15
-6 -30 -4 -34 26 -45 57 -23 78 -49 78 -95 0 -30 6 -47 21 -61 l21 -19 -27
-21 c-35 -28 -25 -47 20 -38 55 10 56 -27 1 -50 -18 -7 16 -26 47 -26 47 0 67
-17 67 -56 0 -27 8 -43 31 -65 19 -18 28 -33 23 -41 -13 -20 -14 -102 -2 -109
6 -4 21 -1 34 7 33 22 91 -28 80 -69 -7 -30 -30 -36 -44 -10 -6 11 -16 14 -28
9 -16 -6 -12 -13 29 -50 27 -25 47 -53 47 -64 0 -12 5 -24 10 -27 6 -3 10 -19
10 -34 0 -29 44 -121 64 -133 14 -9 46 0 68 19 35 31 54 -21 19 -54 -50 -48
-96 -163 -71 -178 6 -3 10 -19 10 -35 0 -16 4 -31 9 -34 16 -10 34 24 34 64 0
42 25 61 62 46 22 -8 19 -82 -5 -121 -22 -36 -18 -61 11 -70 13 -5 19 -16 19
-37 0 -23 9 -39 38 -63 33 -30 37 -38 37 -81 0 -56 26 -71 35 -20 11 67 42 31
38 -44 -1 -19 2 -42 6 -52 5 -12 2 -18 -14 -23 -27 -9 -44 -50 -30 -75 5 -10
10 -39 10 -63 0 -34 5 -48 21 -59 19 -12 20 -17 9 -38 -11 -21 -10 -26 15 -47
23 -20 25 -26 13 -40 -16 -20 -20 -105 -4 -115 6 -4 23 -8 38 -8 17 0 28 -6
32 -17 14 -52 16 -84 6 -102 -9 -18 -6 -23 21 -37 30 -15 48 -15 107 2 18 5
22 2 22 -15 0 -11 -4 -21 -9 -21 -37 0 -50 -51 -21 -80 28 -28 38 -25 62 16
27 45 48 26 48 -42 0 -46 12 -60 48 -55 23 3 23 1 16 -61 -8 -75 -3 -68 -47
-75 -29 -4 -39 -1 -58 21 -12 14 -30 26 -38 26 -52 1 -120 85 -92 113 20 20
13 54 -13 61 -38 9 -106 90 -106 126 0 68 -57 99 -82 45 -17 -38 -47 -19 -32
20 8 20 -3 22 -142 29 l-122 6 -10 -30 c-12 -32 -41 -40 -61 -16 -7 8 -34 14
-68 15 -49 1 -60 5 -78 28 -19 22 -27 25 -58 20 -29 -4 -41 -1 -62 19 -22 20
-30 22 -48 13 -15 -9 -22 -9 -25 -1 -9 29 -84 93 -105 90 -42 -6 -33 -50 16
-74 69 -34 58 -87 -20 -97 -42 -5 -43 -5 -53 33 -12 43 -27 50 -80 37 -86 -22
-90 -21 -90 6 0 15 -12 38 -27 53 l-27 27 -63 -21 c-81 -26 -125 -16 -121 27
l3 26 -77 -3 c-99 -5 -155 26 -101 56 22 13 10 42 -17 42 -12 0 -32 -12 -45
-26 -24 -26 -25 -26 -90 -15 -36 7 -70 9 -75 6 -10 -6 -85 29 -112 53 -13 11
-39 14 -101 13 -91 -2 -111 8 -105 51 2 18 11 24 38 28 20 3 35 11 34 18 -1 6
-2 17 -2 23 -2 7 -28 9 -86 4 -79 -7 -85 -6 -95 14 -15 26 -37 27 -51 1 -17
-32 -128 -29 -160 5 -13 14 -30 25 -37 25 -8 0 -28 8 -46 17 -18 9 -56 17 -85
18 -62 1 -142 66 -142 115 0 39 -15 57 -34 41 -9 -8 -16 -20 -16 -27 0 -17 -8
-17 -49 -3 -24 9 -31 17 -31 38 0 44 -42 68 -134 74 -71 5 -80 8 -109 37 -17
18 -42 36 -54 41 -26 10 -31 37 -8 45 26 10 65 -5 65 -25 0 -52 25 -66 41 -24
9 24 5 31 -45 80 -38 35 -61 51 -72 46 -10 -4 -25 4 -40 20 -14 16 -30 24 -39
21 -25 -10 -43 14 -43 58 -1 51 -18 71 -37 44 -22 -30 -86 -20 -238 36 -33 13
-51 41 -42 68 8 26 -19 37 -40 17 -33 -34 -76 12 -79 86 -2 26 -18 49 -87 120
-93 94 -95 96 -115 70 -10 -15 -15 -16 -26 -5 -11 11 -10 16 5 26 21 16 22 30
2 46 -7 6 -17 32 -21 56 -3 24 -11 47 -16 50 -5 3 -14 17 -19 31 -10 27 -39
17 -39 -13 0 -19 -45 -18 -64 2 -9 8 -19 33 -22 54 -8 51 -130 182 -162 173
-27 -7 -37 13 -19 41 10 15 12 28 6 37 -5 8 -9 30 -9 50 0 48 -90 149 -132
149 -21 0 -29 7 -38 34 -6 18 -22 44 -37 57 -36 34 -56 84 -43 109 16 31 12
64 -15 100 -14 19 -25 41 -25 50 0 37 -28 58 -70 53 -38 -5 -40 -4 -40 21 0
14 5 26 10 26 18 0 11 29 -10 40 -15 8 -19 17 -14 37 7 25 6 26 -31 19 -28 -6
-42 -3 -56 10 -23 21 -25 44 -2 44 48 0 65 50 28 82 l-25 22 25 23 c38 36 27
73 -22 73 -28 0 -46 33 -38 70 7 33 -21 58 -72 64 -15 2 -31 4 -35 5 -5 0 -8
40 -8 87 l0 85 55 54 c63 60 63 61 33 85 l-22 17 22 14 c22 14 30 39 12 39
-20 0 -10 43 16 66 28 26 53 31 72 12 17 -17 15 -23 -14 -37 -22 -10 -24 -14
-13 -27 12 -14 15 -14 32 7 10 12 28 23 40 24 13 0 47 26 83 63 l60 62 22 -25
c26 -30 42 -31 72 -5 13 11 27 20 32 20 5 0 14 11 20 25 10 23 17 25 74 25 35
0 66 5 69 10 9 15 51 12 65 -5 17 -21 36 -19 59 6 16 17 34 23 88 25 47 3 70
8 76 19 4 8 21 15 37 15 16 0 41 5 55 10 19 7 39 7 66 -1 39 -12 52 -35 24
-45 -26 -10 -18 -44 9 -44 39 0 58 27 51 70 -7 39 15 53 100 63 17 2 33 5 36
6 3 0 14 -6 25 -14z m-1326 -166 c0 -17 5 -40 11 -51 14 -26 -6 -41 -33 -27
-36 19 -43 53 -18 88 27 35 40 32 40 -10z m556 -1614 c3 -14 3 -32 0 -41 -9
-23 -36 1 -36 31 0 41 26 49 36 10z m3999 -545 c10 -16 -5 -50 -21 -50 -9 0
-14 11 -14 30 0 30 21 42 35 20z m1748 -222 c18 -31 18 -33 0 -65 -26 -48 -47
-39 -51 21 -5 82 18 102 51 44z m-1370 -835 c25 -29 32 -87 12 -107 -46 -46
-93 24 -61 91 18 38 26 40 49 16z m-569 -503 c15 -15 6 -18 -77 -26 -68 -6
-77 -5 -77 10 0 33 124 46 154 16z m884 -448 c4 -50 -13 -79 -34 -61 -9 7 -14
31 -14 61 0 46 2 49 23 46 18 -2 23 -10 25 -46z m-490 -2354 c16 -16 -3 -38
-34 -38 -26 0 -38 14 -30 35 6 18 47 20 64 3z m-1876 -1478 c2 -26 -1 -35 -14
-38 -14 -3 -18 3 -18 26 0 68 27 78 32 12z m352 -216 c11 -29 6 -44 -14 -44
-16 0 -20 7 -20 30 0 32 23 42 34 14z m-314 -49 c0 -20 43 -29 68 -16 46 24
102 -1 102 -46 0 -26 -145 -17 -174 11 -25 22 -34 55 -20 69 10 9 24 -2 24
-18z"/>
<path d="M4787 14479 c-3 -11 -3 -27 0 -35 6 -17 33 -19 33 -1 0 6 3 22 6 35
5 17 2 22 -14 22 -12 0 -22 -8 -25 -21z"/>
<path d="M7984 11894 c-4 -20 -4 -68 -1 -107 2 -40 1 -81 -3 -92 -13 -35 2
-139 21 -143 23 -4 25 13 21 206 -3 136 -7 172 -18 172 -7 0 -16 -16 -20 -36z"/>
<path d="M7012 10395 c-34 -35 -24 -50 29 -46 61 4 63 8 30 42 -35 35 -31 34
-59 4z"/>
<path d="M4833 5623 c-7 -2 -13 -11 -13 -18 0 -7 -7 -15 -15 -19 -16 -6 -21
-36 -6 -36 5 0 14 7 21 15 16 19 37 19 47 1 14 -25 108 -25 108 -1 0 17 -8 21
-49 23 -32 2 -54 10 -65 22 -9 10 -22 16 -28 13z"/>
<path d="M5068 5544 c-4 -4 8 -23 28 -41 l35 -35 26 26 c17 17 23 30 17 36
-13 13 -97 24 -106 14z"/>
<path d="M6031 5256 c-11 -13 -9 -16 13 -22 15 -4 26 -13 26 -23 0 -23 9 -31
26 -24 16 6 19 33 4 33 -5 0 -20 12 -33 26 -21 22 -25 23 -36 10z"/>
<path d="M16200 13613 c-126 -4 -162 -11 -118 -23 69 -20 385 -10 347 10 -22
12 -104 17 -229 13z"/>
<path d="M15800 13578 c-63 -5 -120 -14 -128 -20 -7 -6 -49 -13 -94 -14 -44
-2 -96 -8 -115 -15 -19 -6 -49 -8 -67 -5 -23 5 -37 2 -46 -9 -7 -8 -24 -15
-37 -15 -14 0 -37 -6 -51 -14 -29 -15 -163 -46 -197 -46 -12 0 -26 -5 -31 -10
-6 -6 -28 -12 -48 -14 -23 -1 -42 -9 -48 -19 -5 -10 -21 -17 -38 -17 -16 0
-52 -9 -79 -20 -28 -11 -57 -17 -65 -14 -9 3 -50 -11 -92 -31 -42 -20 -99 -40
-125 -45 -27 -5 -59 -16 -71 -23 -13 -8 -50 -20 -83 -27 -37 -8 -69 -22 -83
-36 -12 -13 -35 -27 -50 -30 -78 -17 -171 -50 -192 -68 -8 -7 -42 -28 -75 -46
-33 -18 -80 -48 -104 -67 -25 -18 -56 -36 -70 -39 -14 -3 -39 -12 -56 -19 -16
-8 -41 -16 -55 -19 -14 -3 -32 -18 -41 -33 -11 -20 -29 -32 -63 -41 -32 -8
-58 -24 -79 -47 -18 -21 -40 -35 -53 -35 -13 0 -28 -9 -34 -20 -6 -11 -16 -20
-22 -20 -6 0 -28 -15 -48 -32 -21 -18 -55 -44 -75 -58 -20 -14 -54 -40 -75
-57 -21 -19 -49 -33 -63 -33 -17 0 -28 -7 -32 -20 -3 -11 -23 -32 -43 -48 -20
-15 -45 -37 -55 -49 -10 -13 -23 -23 -28 -23 -19 0 -82 -55 -105 -92 -19 -30
-30 -38 -54 -38 -25 0 -31 -5 -36 -28 -4 -20 -25 -43 -69 -76 -34 -27 -94 -80
-131 -120 -38 -39 -81 -76 -95 -82 -15 -7 -29 -23 -33 -38 -3 -14 -56 -75
-116 -135 -61 -60 -110 -116 -110 -124 0 -8 -6 -20 -14 -27 -8 -6 -16 -23 -18
-38 -2 -17 -10 -28 -25 -32 -23 -5 -80 -66 -103 -109 -7 -13 -38 -56 -69 -95
-57 -72 -79 -106 -106 -164 -9 -18 -26 -37 -40 -42 -13 -5 -31 -22 -39 -38 -8
-16 -22 -34 -30 -41 -9 -8 -16 -23 -16 -36 0 -12 -9 -30 -20 -40 -11 -10 -20
-28 -20 -41 0 -13 -5 -26 -10 -29 -6 -4 -24 -33 -40 -65 -16 -32 -42 -77 -58
-101 -17 -24 -36 -66 -44 -94 -10 -36 -21 -53 -39 -62 -18 -9 -35 -34 -54 -80
-36 -86 -67 -145 -94 -179 -12 -15 -21 -34 -21 -42 0 -9 -6 -23 -13 -31 -7 -9
-24 -43 -36 -76 -13 -33 -32 -69 -41 -80 -27 -31 -42 -65 -36 -81 6 -15 -26
-98 -42 -108 -5 -3 -13 -30 -16 -60 -5 -34 -14 -60 -27 -72 -10 -9 -19 -22
-19 -28 0 -6 -8 -27 -19 -46 -10 -19 -22 -55 -26 -80 -4 -25 -15 -61 -25 -80
-10 -20 -23 -62 -29 -95 -6 -32 -16 -64 -21 -69 -6 -6 -10 -20 -10 -31 0 -12
-9 -30 -21 -41 -29 -26 -55 -80 -64 -131 -4 -24 -11 -45 -16 -49 -5 -3 -9 -13
-9 -23 0 -10 -8 -26 -19 -35 -20 -19 -38 -169 -26 -219 12 -47 214 -69 287
-31 16 9 55 22 86 30 66 17 80 33 50 55 -26 20 -15 43 18 35 17 -5 26 -1 34
14 11 21 54 27 79 11 11 -7 10 -12 -8 -22 -30 -20 -26 -36 12 -44 17 -4 37
-11 42 -15 13 -10 312 7 349 20 16 5 123 10 237 10 117 0 219 4 235 10 14 6
60 13 101 17 40 3 76 10 79 14 3 5 74 9 157 9 163 1 490 30 522 47 11 6 75 14
142 18 89 6 123 11 127 21 4 10 24 14 65 14 49 0 65 4 90 26 26 21 34 24 46
14 16 -14 91 -8 122 9 10 5 52 17 93 26 41 9 88 23 104 31 16 8 44 14 61 14
18 0 45 10 60 22 27 21 51 28 170 49 67 11 124 29 173 54 19 10 82 34 140 54
101 35 107 39 104 63 -4 33 20 42 64 26 41 -14 82 -2 151 45 25 16 66 34 90
38 25 5 58 20 75 34 16 14 35 25 42 25 7 0 32 14 54 30 23 16 46 30 51 30 4 0
25 11 45 25 20 14 54 28 76 31 26 4 45 15 55 30 8 13 21 24 27 24 19 0 175
109 202 141 14 16 31 29 39 29 8 0 25 8 38 17 42 31 63 43 112 65 37 16 47 26
47 45 0 16 8 27 27 34 14 5 44 25 65 44 21 19 43 35 49 35 7 0 31 19 54 43 23
23 68 62 99 87 96 76 309 296 351 362 11 18 51 64 88 102 38 38 73 81 79 97 5
15 18 31 29 34 10 3 28 24 41 46 12 21 25 39 29 39 4 0 16 15 27 33 12 17 41
61 66 97 25 36 46 71 46 78 0 7 13 27 30 45 58 63 80 95 80 115 0 11 11 34 25
50 14 17 35 51 46 77 22 50 59 110 83 135 8 8 18 29 22 45 3 17 13 37 21 46 7
9 18 41 23 72 8 50 19 79 50 127 30 49 72 150 77 189 5 42 22 91 59 164 8 16
14 44 14 62 0 18 11 55 25 82 24 47 31 72 56 198 7 33 19 73 27 89 7 15 11 37
9 47 -7 27 12 91 33 111 11 10 20 40 24 80 8 71 28 154 50 213 25 67 20 147
-13 214 -32 63 -44 68 -181 76 -64 4 -120 15 -157 31 -17 8 -38 14 -47 14 -9
0 -41 13 -71 29 -38 20 -76 31 -127 36 -40 4 -78 12 -85 17 -7 5 -20 7 -30 4
-10 -3 -59 1 -108 9 -108 18 -171 19 -181 4 -4 -8 -25 -9 -60 -5 -30 3 -65 1
-81 -5 -26 -10 -433 -20 -460 -11 -7 2 -13 10 -13 18 0 16 -22 16 -200 2z
m827 -124 c23 -3 47 -12 53 -19 7 -8 21 -15 31 -15 26 0 35 -21 16 -35 -25
-18 -21 -39 13 -58 41 -25 52 -15 44 39 -6 39 -4 44 13 44 29 0 73 -23 73 -39
0 -17 46 -61 65 -61 13 0 61 21 117 51 23 12 55 12 63 -1 4 -6 16 -3 31 7 28
18 41 11 46 -27 2 -18 10 -26 27 -28 23 -4 81 -52 81 -68 0 -4 -8 -13 -17 -21
-17 -13 -17 -14 5 -29 18 -13 22 -26 22 -65 0 -44 4 -53 42 -90 41 -40 41 -58
1 -59 -7 0 -13 -11 -13 -25 0 -14 -7 -36 -15 -48 -21 -32 16 -93 47 -76 14 8
18 17 14 34 -7 28 12 46 42 38 16 -4 22 -13 22 -34 0 -28 -35 -99 -50 -99 -4
0 -10 -17 -14 -38 -3 -23 -19 -53 -41 -77 -34 -39 -45 -65 -26 -65 25 0 18
-34 -15 -70 -20 -22 -33 -44 -29 -49 3 -6 1 -29 -5 -51 -10 -35 -8 -43 12 -70
25 -35 16 -54 -29 -55 -20 0 -29 -7 -36 -28 -5 -15 -22 -42 -38 -60 -17 -19
-29 -43 -29 -59 0 -18 -8 -33 -24 -43 -20 -13 -25 -27 -30 -83 -12 -144 -24
-170 -71 -158 -18 5 -27 16 -35 46 -12 43 -35 53 -45 20 -8 -25 3 -78 21 -105
19 -27 17 -58 -5 -87 -29 -37 -37 -95 -16 -118 16 -18 16 -22 -3 -72 -11 -29
-24 -52 -29 -51 -5 1 -20 4 -34 8 -22 6 -33 -1 -70 -39 -43 -44 -69 -48 -69
-10 0 20 -18 17 -32 -6 -7 -11 -18 -20 -25 -20 -32 0 -21 -27 32 -77 67 -63
68 -84 7 -140 -22 -20 -43 -52 -52 -80 -8 -26 -21 -48 -27 -51 -15 -4 -33 37
-33 74 0 15 -6 24 -15 24 -10 0 -15 -10 -15 -33 0 -26 -8 -41 -39 -68 -29 -25
-39 -40 -35 -54 3 -13 -3 -28 -15 -39 -12 -11 -21 -28 -21 -39 0 -12 -19 -38
-41 -58 -32 -29 -40 -43 -36 -60 6 -24 -17 -79 -34 -79 -5 0 -14 -11 -19 -25
-17 -44 -46 -19 -34 30 10 40 -16 40 -52 -1 -19 -20 -34 -41 -34 -45 0 -5 -24
-9 -52 -11 -51 -3 -53 -4 -56 -34 -3 -27 1 -33 30 -43 55 -21 63 -27 63 -52 0
-22 -4 -24 -55 -25 -86 -3 -82 -1 -75 -33 7 -34 -18 -66 -44 -55 -42 18 -60
16 -82 -10 -14 -16 -33 -26 -50 -26 -15 0 -29 -6 -32 -14 -3 -8 -21 -16 -39
-18 -38 -3 -46 -31 -12 -36 12 -2 30 -12 40 -23 9 -10 23 -19 30 -19 26 0 24
-21 -3 -45 -32 -28 -55 -31 -73 -10 -15 17 -46 20 -56 4 -3 -6 -1 -16 5 -22
40 -40 -1 -83 -69 -70 -49 10 -49 10 -86 -28 l-38 -39 -24 22 -23 23 -18 -23
c-11 -15 -23 -21 -33 -17 -11 4 -30 -6 -54 -28 -37 -34 -37 -34 -16 -46 48
-26 28 -48 -50 -55 -74 -8 -118 -31 -118 -63 0 -13 -11 -17 -43 -13 -10 1 -26
-5 -35 -14 -10 -8 -41 -16 -71 -18 -68 -4 -78 -23 -19 -35 58 -12 66 -50 16
-82 l-33 -21 -27 32 -26 33 -13 -28 c-7 -15 -16 -27 -21 -27 -4 0 -8 -14 -8
-31 0 -31 -1 -31 -37 -26 -48 8 -113 -22 -151 -69 -22 -28 -32 -33 -54 -29
-17 4 -41 -1 -66 -14 -21 -11 -48 -20 -58 -21 -75 -2 -107 -14 -141 -51 -40
-44 -49 -47 -58 -19 -8 26 -31 26 -46 -1 -9 -18 -17 -21 -51 -16 -33 4 -43 1
-61 -20 -19 -21 -28 -24 -59 -19 -33 5 -39 3 -58 -24 -27 -38 -53 -25 -48 24
4 38 -23 44 -32 6 -5 -19 -15 -26 -48 -33 -27 -5 -42 -14 -42 -23 0 -23 -49
-67 -69 -61 -10 2 -28 -1 -41 -8 -13 -7 -41 -10 -64 -8 -30 4 -45 1 -55 -11
-20 -24 -35 -20 -77 23 -32 31 -43 37 -61 30 -24 -9 -30 -24 -13 -34 6 -3 10
-23 10 -44 0 -38 0 -38 -46 -44 -25 -2 -61 0 -80 6 -24 7 -41 7 -58 -1 -18 -8
-28 -7 -44 4 -28 19 -98 4 -119 -26 -15 -21 -21 -22 -115 -17 -96 6 -99 5
-120 -18 l-22 -25 -242 1 -242 1 -21 24 c-35 41 -134 29 -100 -12 6 -8 20 -12
29 -9 23 7 47 -20 28 -32 -28 -18 -387 -11 -393 8 -12 36 -69 35 -80 -2 -6
-17 -14 -20 -51 -18 -24 2 -49 -2 -56 -9 -7 -7 -23 -12 -35 -12 -13 0 -37 -7
-52 -14 -15 -8 -37 -13 -48 -10 -12 3 -24 1 -27 -5 -9 -14 -53 -14 -61 -1 -3
6 -19 10 -35 10 -20 0 -31 6 -35 19 -6 20 -34 34 -53 29 -5 -2 -19 8 -30 22
-17 21 -23 23 -34 12 -13 -13 4 -34 34 -44 19 -7 -5 -38 -29 -38 -14 0 -39
-14 -60 -35 -40 -39 -68 -43 -114 -20 -16 9 -34 13 -38 10 -14 -8 -41 6 -41
21 0 8 -9 22 -20 31 -30 26 -27 87 5 115 33 28 32 61 -2 83 l-27 18 28 22 29
23 -26 17 c-23 14 -24 20 -15 46 11 33 23 37 36 12 15 -26 44 -9 36 21 -4 18
-1 28 15 38 16 10 21 23 21 60 0 37 5 50 22 62 17 12 22 27 25 78 5 91 12 124
28 138 8 7 15 29 15 49 0 20 4 42 9 50 9 14 31 7 31 -10 0 -13 60 -69 74 -69
19 0 36 22 36 46 0 25 -17 40 -41 36 -25 -4 -43 23 -24 38 8 7 21 10 29 7 36
-14 49 48 16 78 -28 26 -26 63 5 77 31 14 31 21 3 41 l-23 15 28 26 c25 23 26
28 15 47 -32 53 -38 65 -38 81 0 23 20 34 31 17 5 -8 9 -24 9 -36 0 -27 9 -29
36 -8 10 8 29 15 41 15 27 0 37 16 38 55 0 29 1 30 41 27 38 -3 42 -1 46 23 6
28 -10 105 -21 105 -41 1 -25 75 25 116 23 18 24 24 13 41 -15 24 -7 48 20 63
18 9 22 6 35 -25 11 -25 19 -33 30 -29 24 9 20 59 -6 76 -30 20 -14 40 31 37
56 -3 61 -1 61 29 0 18 13 40 40 66 l40 39 -4 76 c-3 72 -1 78 25 109 16 18
29 41 29 51 0 27 21 40 48 30 15 -6 22 -17 22 -36 0 -36 14 -57 33 -50 14 5
13 108 -2 115 -44 19 -31 78 17 84 21 2 28 9 30 32 2 16 14 43 27 60 13 17 29
44 35 60 9 26 13 28 43 21 81 -21 128 -5 107 35 -14 26 2 43 32 34 24 -7 64
52 48 71 -7 8 -20 15 -30 15 -27 0 -30 10 -12 44 31 58 79 108 98 104 27 -5
31 -38 5 -38 -12 0 -21 -6 -21 -14 0 -30 18 -24 56 19 22 26 48 45 60 45 24 0
74 49 74 73 0 17 33 54 66 73 29 17 29 41 0 48 -49 12 -15 57 56 76 24 7 58
18 76 26 18 8 39 14 47 14 22 0 85 68 85 91 0 24 43 69 66 69 10 0 25 7 34 15
9 8 41 21 70 28 72 17 109 50 85 77 -26 29 29 83 85 82 34 -1 44 5 93 59 35
37 63 59 77 59 12 0 35 15 53 35 31 36 64 44 85 23 9 -9 15 -9 25 1 7 8 8 15
2 17 -35 14 -39 22 -23 46 9 14 18 35 20 49 4 34 42 33 46 -1 5 -38 18 -44 41
-21 12 12 28 21 36 21 15 0 55 33 111 89 22 22 25 23 48 8 20 -14 26 -14 42
-2 11 8 26 15 35 15 9 0 26 9 39 20 13 11 31 20 41 20 9 0 26 12 36 26 11 15
34 29 53 33 42 8 49 32 18 61 -37 34 3 53 56 25 38 -20 59 -19 81 5 10 11 28
20 41 20 13 0 28 -9 34 -20 14 -26 36 -26 50 1 7 13 19 19 33 17 17 -2 26 7
44 45 27 55 35 57 73 16 l28 -31 18 27 c17 26 21 27 81 22 58 -4 63 -3 79 20
14 22 21 25 57 20 36 -5 44 -2 71 28 35 37 61 43 211 52 49 2 92 8 95 12 17
25 74 31 115 11 47 -23 107 -26 123 -7 19 22 2 56 -31 65 -37 10 -45 27 -18
41 23 13 51 5 51 -15 0 -24 23 -25 63 -5 26 13 49 18 73 14 19 -3 52 0 72 6
27 9 82 10 206 4 l170 -8 22 24 c20 21 28 23 78 18 45 -4 59 -2 73 11 25 26
188 34 330 16z m-2493 -469 c10 -26 -3 -42 -30 -37 -34 6 -35 52 0 52 13 0 26
-7 30 -15z m-1404 -1025 c0 -15 -7 -20 -24 -20 -27 0 -41 14 -31 30 12 19 55
12 55 -10z m-1484 -2211 c21 -23 8 -39 -33 -39 -19 0 -23 6 -23 30 0 36 27 41
56 9z"/>
<path d="M16951 13261 c-20 -13 -4 -31 29 -31 39 0 47 18 15 30 -31 12 -27 12
-44 1z"/>
<path d="M15867 12263 c-4 -3 -7 -22 -7 -40 0 -42 42 -46 48 -5 5 33 -23 64
-41 45z"/>
<path d="M16627 11293 c-11 -11 -8 -61 4 -69 6 -3 25 7 41 24 17 16 27 35 24
41 -8 12 -58 15 -69 4z"/>
<path d="M15146 10011 c-12 -19 4 -31 39 -31 31 0 54 14 42 26 -11 12 -75 15
-81 5z"/>
<path d="M13386 9371 c-11 -17 56 -82 71 -70 20 17 16 33 -17 57 -32 24 -46
27 -54 13z"/>
<path d="M9867 10174 c-4 -4 -7 -18 -7 -32 0 -13 -10 -32 -22 -41 -21 -18 -18
-41 5 -41 18 1 58 70 55 93 -3 21 -19 32 -31 21z"/>
<path d="M9557 9293 c-4 -3 -7 -27 -7 -52 0 -25 -5 -64 -11 -86 -25 -96 -26
-95 19 -95 57 0 67 17 63 112 -3 86 -36 149 -64 121z"/>
<path d="M9582 9008 c-7 -7 -27 -17 -44 -22 -66 -22 -38 -94 31 -81 49 9 51
11 51 50 0 58 -14 77 -38 53z"/>
<path d="M8795 8779 c-4 -6 -1 -15 6 -20 21 -14 64 -6 64 11 0 18 -60 26 -70
9z"/>
<path d="M9597 8553 c-4 -3 -7 -35 -7 -70 0 -56 -2 -63 -19 -63 -25 0 -37 -18
-22 -33 17 -17 58 38 70 95 13 59 2 95 -22 71z"/>
<path d="M9230 8074 c-6 -15 -8 -34 -5 -42 8 -21 35 4 35 34 0 34 -19 39 -30
8z"/>
<path d="M13570 7660 c-14 -4 -42 -8 -63 -9 -21 -1 -52 -8 -69 -17 -22 -11
-45 -15 -77 -11 -87 11 -294 -21 -376 -58 -39 -17 -116 -35 -153 -35 -16 0
-35 -7 -42 -15 -8 -10 -30 -15 -62 -15 -29 0 -64 -8 -86 -19 -20 -11 -49 -24
-64 -30 -18 -7 -28 -18 -28 -30 0 -17 -7 -20 -42 -20 -88 1 -124 -10 -184 -56
-33 -26 -57 -35 -106 -40 -37 -4 -73 -15 -87 -26 -13 -11 -28 -19 -32 -19 -5
0 -30 -15 -56 -34 -69 -49 -107 -66 -147 -66 -21 0 -46 -9 -63 -22 -55 -44
-89 -65 -146 -88 -32 -14 -62 -31 -67 -40 -5 -9 -28 -26 -53 -38 -25 -12 -50
-29 -57 -37 -7 -8 -23 -15 -35 -15 -13 0 -32 -10 -42 -22 -27 -34 -96 -78
-121 -78 -22 0 -62 -32 -62 -49 0 -5 -21 -22 -47 -37 -27 -15 -72 -49 -101
-76 -30 -26 -58 -48 -63 -48 -6 0 -34 -22 -62 -49 -29 -27 -63 -51 -76 -53
-17 -2 -28 -13 -36 -38 -9 -26 -20 -37 -44 -44 -22 -6 -50 -32 -94 -87 -34
-43 -68 -78 -74 -78 -7 -1 -20 -12 -28 -25 -9 -14 -30 -29 -46 -35 -16 -5 -34
-22 -41 -36 -7 -15 -56 -72 -111 -127 -54 -56 -110 -119 -123 -140 -15 -23
-32 -38 -44 -38 -21 0 -24 -4 -34 -53 -4 -16 -16 -31 -30 -36 -27 -11 -72 -62
-82 -93 -3 -13 -23 -42 -43 -65 -54 -62 -81 -100 -81 -112 0 -6 -14 -20 -32
-31 -18 -11 -39 -32 -48 -48 -32 -59 -57 -97 -102 -158 -27 -35 -48 -72 -48
-82 0 -10 -9 -27 -21 -38 -12 -10 -31 -39 -44 -64 -13 -25 -39 -59 -59 -77
-24 -21 -36 -40 -36 -58 0 -20 -8 -29 -34 -40 -19 -8 -43 -30 -54 -49 -19 -32
-89 -66 -135 -66 -5 0 -27 -13 -50 -30 -23 -16 -69 -37 -102 -45 -33 -9 -69
-24 -80 -34 -30 -27 -119 -61 -159 -61 -19 0 -39 -6 -43 -14 -4 -7 -25 -19
-45 -25 -21 -7 -44 -21 -52 -32 -7 -11 -42 -34 -77 -52 -111 -56 -108 -133 4
-108 29 6 61 9 70 5 18 -7 23 -39 7 -49 -5 -3 -14 -24 -20 -46 -7 -26 -19 -44
-34 -51 -21 -9 -23 -16 -19 -48 6 -42 -32 -75 -74 -64 -11 3 -25 -1 -32 -10
-20 -24 -31 -20 -47 20 -15 35 -16 35 -39 20 -13 -9 -33 -16 -43 -16 -11 0
-27 -12 -37 -26 -14 -21 -23 -25 -58 -23 -60 4 -106 -37 -83 -73 18 -27 0 -68
-29 -68 -15 0 -65 -60 -65 -78 0 -12 12 -16 43 -12 10 1 24 -4 32 -10 10 -8
19 -8 33 -1 10 5 32 9 48 9 32 -1 83 22 103 46 8 9 23 16 35 16 11 0 34 7 50
15 15 8 36 15 45 15 9 0 31 15 49 34 39 40 171 110 227 120 21 4 55 16 75 26
19 10 54 23 77 29 23 6 61 23 85 36 24 14 50 25 59 25 8 0 26 11 39 25 13 14
32 25 42 25 9 0 25 11 34 24 16 25 48 39 115 50 21 4 42 13 49 21 7 9 21 13
35 9 16 -4 26 1 38 19 16 24 16 24 159 20 116 -4 145 -8 156 -21 12 -15 71
-27 177 -36 22 -1 72 -9 110 -16 39 -8 107 -14 152 -14 68 -1 84 -4 96 -19 15
-22 149 -57 216 -57 24 0 69 -7 100 -15 57 -14 90 -17 173 -16 26 0 71 -8 100
-18 72 -26 217 -46 231 -32 16 16 38 14 80 -8 21 -11 66 -22 100 -26 34 -4 67
-11 72 -15 29 -22 514 -27 740 -9 71 6 146 8 166 5 25 -4 40 -1 48 8 12 14 97
30 241 46 108 11 169 23 196 38 12 6 59 14 105 18 46 4 89 11 95 15 6 5 37 12
69 15 32 3 70 11 84 18 25 13 93 28 138 30 12 1 30 9 41 19 10 9 26 17 34 17
22 0 153 44 221 74 32 14 68 26 80 26 12 0 38 9 57 19 92 51 166 81 196 81 23
0 34 5 39 19 3 12 18 21 41 24 21 4 43 16 55 31 11 14 41 35 66 46 25 11 61
33 79 50 19 16 42 30 50 30 15 0 103 47 114 60 3 4 28 19 56 34 51 28 124 90
124 107 0 5 9 9 19 9 11 0 23 5 26 10 4 6 23 21 43 34 21 13 64 48 97 78 112
104 140 126 177 141 20 9 43 28 52 44 8 15 58 73 111 128 53 55 100 109 104
119 4 10 23 24 42 30 26 8 35 18 39 40 3 18 16 35 33 45 15 9 45 43 66 76 21
34 46 67 55 75 25 20 86 115 86 133 0 30 12 47 35 47 18 0 27 10 40 42 9 24
37 64 61 90 24 26 44 53 44 61 0 8 9 22 20 32 11 10 20 27 20 37 0 24 24 70
44 87 9 8 21 31 26 52 6 22 23 54 39 72 38 45 71 101 71 122 0 10 7 26 15 35
23 25 95 200 95 230 0 15 9 35 20 45 80 73 26 230 -92 267 -21 6 -45 22 -53
35 -11 17 -25 23 -50 23 -18 0 -37 5 -41 11 -10 16 -125 69 -151 69 -32 0 -72
20 -78 40 -3 10 -19 20 -35 23 -16 4 -62 22 -103 41 -40 19 -92 39 -116 45
-23 5 -50 16 -59 24 -9 8 -42 17 -72 20 -31 3 -72 15 -91 26 -22 13 -56 22
-85 23 -32 1 -55 8 -67 20 -12 12 -33 18 -65 18 -30 0 -66 9 -97 25 -37 18
-67 24 -115 25 -36 0 -85 7 -108 15 -41 14 -49 14 -118 -5 -87 -25 -153 -13
-99 18 12 6 8 12 -20 25 -39 19 -286 9 -350 -14 -23 -8 -79 -6 -237 10 -227
23 -213 22 -248 11z m480 -100 c0 -5 -22 -10 -49 -10 -28 0 -53 5 -56 10 -4 6
15 10 49 10 31 0 56 -4 56 -10z m51 -76 c20 -18 29 -18 48 0 32 29 66 30 79 2
7 -16 21 -27 34 -28 13 0 37 -2 53 -4 43 -3 75 6 75 21 0 39 78 21 82 -19 3
-31 3 -31 68 -34 56 -3 66 0 80 19 24 31 75 19 89 -22 l10 -29 41 21 42 22 24
-27 c23 -24 30 -26 84 -21 52 5 60 3 70 -15 13 -24 35 -26 44 -5 3 8 12 15 21
15 9 0 18 -7 21 -15 9 -22 23 -19 50 10 20 21 27 24 44 15 24 -13 26 -38 5
-46 -21 -9 -19 -31 5 -44 11 -6 20 -19 20 -30 0 -33 12 -50 35 -50 28 0 47 22
39 45 -14 36 43 47 83 15 14 -11 48 -23 76 -26 59 -8 92 -35 83 -69 -7 -29 11
-37 40 -18 19 12 24 12 37 -2 20 -20 24 -19 63 10 18 14 37 25 43 25 16 0 33
-38 26 -59 -5 -18 23 -49 67 -71 40 -21 78 -63 78 -86 0 -23 17 -34 55 -34 42
0 49 -61 10 -86 -23 -15 -25 -21 -20 -58 8 -48 -10 -72 -44 -61 -22 7 -25 0
-35 -88 -5 -39 -2 -50 14 -64 24 -21 26 -41 5 -49 -9 -4 -15 -19 -15 -42 0
-54 -22 -72 -92 -72 -55 0 -58 -1 -58 -25 0 -15 8 -29 21 -36 49 -26 -22 -157
-78 -143 -29 8 -41 -19 -19 -41 20 -21 6 -52 -30 -65 -13 -6 -35 -14 -48 -19
-23 -9 -24 -12 -13 -46 17 -58 -18 -87 -93 -74 -58 9 -70 3 -70 -38 0 -29 20
-40 35 -20 12 17 50 25 43 10 -28 -60 -97 -119 -126 -108 -22 8 -82 -57 -75
-83 3 -14 -2 -24 -16 -31 -27 -15 -27 -28 2 -53 15 -14 18 -21 9 -25 -27 -11
-82 -71 -82 -91 0 -13 -10 -24 -30 -31 -22 -7 -32 -18 -36 -40 -12 -60 -53
-63 -54 -4 0 30 -18 38 -39 19 -10 -9 -23 -16 -30 -16 -7 0 -33 -20 -58 -45
-35 -34 -51 -43 -68 -39 -30 7 -39 -10 -21 -38 21 -33 -26 -123 -64 -123 -29
0 -41 -33 -16 -47 9 -5 16 -17 16 -27 0 -44 -83 -67 -114 -32 -25 27 -62 27
-92 -1 -29 -28 -30 -45 -3 -53 12 -4 19 -14 17 -23 -5 -24 -37 -27 -44 -5 -18
50 -75 67 -100 28 -19 -29 -10 -49 19 -41 40 10 51 -14 21 -46 -22 -22 -37
-28 -71 -28 -34 0 -48 -6 -65 -25 -12 -14 -32 -25 -45 -25 -18 0 -27 -9 -39
-39 -14 -36 -118 -131 -143 -131 -4 0 -25 13 -45 29 -47 38 -108 41 -124 6 -6
-13 -20 -26 -32 -30 -17 -5 -20 -12 -16 -30 7 -26 -8 -35 -59 -35 -53 0 -91
-71 -45 -85 11 -3 20 -11 20 -16 0 -14 -64 -11 -94 5 -30 15 -87 8 -94 -12 -2
-6 1 -12 7 -12 32 0 9 -40 -26 -46 -21 -4 -65 -20 -99 -35 -63 -30 -94 -36
-94 -19 0 16 -22 12 -35 -7 -13 -17 -19 -16 -70 16 -46 28 -116 35 -160 16
-50 -20 -68 -19 -90 5 -30 33 -80 24 -80 -13 0 -16 -8 -34 -17 -41 -10 -7 -18
-25 -18 -39 0 -34 -16 -42 -46 -23 -42 29 -286 27 -317 -2 -20 -19 -34 -22
-101 -21 -67 1 -80 -2 -101 -21 -19 -18 -32 -22 -59 -17 -29 5 -39 2 -51 -15
-16 -25 -33 -27 -225 -35 -144 -5 -231 6 -264 36 -15 13 -44 16 -176 16 -136
0 -161 2 -177 17 -25 23 -40 23 -53 -2 -15 -27 -91 -27 -145 0 -22 11 -44 20
-50 20 -42 0 -85 23 -85 44 0 28 -22 49 -43 41 -9 -4 -21 3 -31 16 -24 34 -90
37 -111 5 -25 -38 -45 -40 -57 -6 -12 37 -40 39 -70 5 -17 -19 -30 -24 -63
-23 -29 2 -48 -3 -60 -15 -26 -26 -69 -19 -73 13 -5 38 -18 45 -46 26 -14 -9
-37 -16 -51 -16 -28 0 -36 -34 -10 -44 20 -7 19 -32 -1 -40 -10 -4 -18 1 -21
13 -3 11 -16 27 -29 36 -13 8 -31 29 -39 45 -14 26 -21 30 -59 30 -56 0 -76 8
-76 29 0 47 -37 80 -90 79 -31 -1 -54 -7 -58 -15 -19 -33 -162 -26 -162 7 0
23 -68 10 -84 -15 -15 -22 -24 -25 -76 -25 -72 0 -93 22 -60 60 26 30 25 46
-5 72 -14 12 -25 32 -25 45 0 13 10 29 25 39 22 14 25 24 25 73 0 80 43 171
83 171 30 0 40 -33 12 -44 -35 -13 0 -42 36 -31 21 7 26 49 8 60 -21 14 -30
57 -18 94 16 49 20 52 57 42 39 -12 62 6 55 42 -6 33 22 43 41 15 9 -13 21
-18 31 -14 25 9 14 49 -17 64 -32 15 -38 51 -13 72 13 11 21 9 45 -8 53 -40
73 -19 72 73 -1 72 12 90 39 54 27 -36 41 -13 43 69 1 84 10 97 41 58 29 -37
45 -27 45 29 0 52 38 105 75 105 27 0 48 22 40 42 -9 22 15 36 65 40 35 2 46
7 49 23 2 11 12 31 22 44 12 15 19 40 19 65 0 46 13 66 45 66 12 0 45 25 80
60 43 44 67 60 86 60 45 0 57 73 14 84 -45 11 -21 61 36 73 16 3 31 13 34 23
12 36 43 53 105 55 47 2 67 8 85 25 13 12 31 20 39 17 20 -8 32 10 40 58 10
52 31 85 56 85 12 0 25 10 31 24 9 19 21 25 61 28 36 4 53 11 65 27 8 12 21
20 29 17 7 -3 20 2 29 10 8 9 28 19 43 23 18 5 33 20 45 47 26 53 58 86 79 81
21 -6 80 48 77 71 -1 9 -1 23 0 30 2 21 64 52 103 52 31 0 40 5 53 30 18 35
30 38 45 11 15 -28 12 -41 -7 -41 -23 0 -67 -46 -58 -60 10 -16 20 -12 56 25
22 22 40 33 51 29 20 -6 51 36 43 58 -11 27 53 70 94 66 20 -3 50 1 67 8 17 7
34 11 37 8 14 -14 46 9 49 34 3 25 8 27 53 32 73 7 75 35 4 43 -100 12 -85 31
32 41 52 4 57 2 68 -20 12 -26 27 -29 84 -13 43 12 47 21 12 37 -40 18 -22 43
26 36 l39 -7 0 37 c0 29 4 36 20 36 15 0 20 -7 20 -28 0 -44 65 -84 85 -52 3
6 28 10 56 10 53 0 64 16 34 50 -33 37 -16 90 18 55 31 -30 69 -17 90 33 l13
32 24 -25 c30 -32 44 -31 72 0 22 25 25 26 146 24 117 -1 124 0 139 21 10 14
22 20 35 17 13 -4 27 3 41 19 20 24 21 24 41 5 36 -34 90 -37 117 -8 21 22 35
26 104 31 44 2 127 11 185 19 129 17 366 12 391 -9z m514 -4 c0 -19 -41 -25
-60 -10 -22 18 -8 32 28 28 20 -2 32 -8 32 -18z m-197 -2587 c-2 -12 -13 -18
-32 -18 -33 0 -47 21 -19 28 39 10 54 7 51 -10z m-4969 -267 c26 -28 21 -33
-45 -41 -53 -7 -92 12 -62 32 61 39 77 41 107 9z m-267 -96 c8 -12 24 -20 40
-20 22 0 29 -6 36 -32 11 -39 -1 -58 -35 -58 -13 0 -31 -7 -40 -15 -21 -22
-37 -14 -41 20 -2 16 -12 35 -23 43 -21 15 -25 52 -7 70 19 19 56 14 70 -8z
m283 -23 c0 -14 9 -32 19 -40 34 -25 10 -37 -65 -33 -82 4 -82 4 -68 44 8 22
17 32 32 32 12 0 31 7 42 15 26 20 40 14 40 -18z m-515 -119 c0 -37 -15 -54
-34 -39 -27 22 -21 61 9 61 19 0 25 -5 25 -22z m3295 -210 c36 -7 65 -16 65
-20 0 -5 -128 -8 -283 -8 -156 0 -331 -3 -388 -6 -66 -3 -109 -1 -119 5 -28
20 7 27 147 30 76 1 139 4 142 7 10 10 376 3 436 -8z"/>
<path d="M8914 6407 c-11 -29 0 -92 16 -92 11 0 15 12 15 49 0 49 -19 74 -31
43z"/>
<path d="M8674 5086 c-10 -43 -1 -61 30 -59 37 3 40 6 32 48 -9 44 -51 52 -62
11z"/>
<path d="M8192 3928 c-16 -16 -15 -43 3 -58 12 -10 17 -8 26 13 19 41 -1 73
-29 45z"/>
<path d="M7637 3453 c-10 -10 -8 -61 2 -68 12 -7 17 1 26 43 6 31 -9 45 -28
25z"/>
<path d="M6835 1698 c-17 -58 -13 -68 25 -68 39 0 50 12 50 50 0 28 -66 44
-75 18z"/>
<path d="M6075 1080 c-12 -37 3 -61 33 -54 42 10 44 14 20 44 -27 34 -44 37
-53 10z"/>
<path d="M5806 750 c-30 -30 -28 -50 5 -50 37 0 59 19 59 50 0 39 -25 39 -64
0z"/>
</g>
</svg>
