<?xml version="1.0" encoding="UTF-8"?>
<svg xmlns="http://www.w3.org/2000/svg" viewBox="0 0 512 507" width="512" height="507">
<path d="M217.95 393.25C220.61 393.26 223.31 391.22 225.76 390.26C229.63 388.75 234.77 387.57 238.18 384.95C242.03 381.98 249.18 368.46 253.08 363.8C262.26 352.86 273.25 343.95 284.32 334.83C289.08 330.92 295.53 328.14 301.02 325.76C306.29 323.48 311.28 320.67 316.88 319.22C320.67 318.24 324.46 317.19 328.23 316.24C329.35 315.96 330.64 316.23 331.73 315.88C332.31 315.69 332.67 315.13 333.27 315.05C342.45 313.78 360.56 314.31 369.77 316.24C376.07 317.56 382.64 319.67 388.61 322.17C393.11 324.05 398.28 327.68 402.75 328.53C405.33 333.78 402.84 338.1 400.2 342.93C395.51 351.52 390.53 359.18 384.52 366.8C363.96 392.86 324.2 406.98 291.41 403.75C279.64 402.59 267.89 400.7 256.27 398.58C249.52 397.35 243.89 395.35 237.34 398.15C230.46 401.1 223.63 404.31 216.92 407.67C214.83 408.71 210.84 409.82 209.29 411.54C207.03 414.03 206.3 418.43 204.73 421.38C202.38 425.8 200.02 430.22 197.82 434.73C196.71 437.01 194.66 439.29 193.31 441.56C188.47 449.72 183.67 457.55 177.63 464.88C173.39 470.02 169.92 476.32 164.74 480.49C163.09 481.82 162.24 483.91 160.68 485.19C155.21 489.67 150.5 495.12 144.49 499.25C141.56 501.27 137.64 504.5 133.81 502.59C132 501.69 130.41 500.02 129.56 498.21C125.69 489.88 138.44 482.99 143.36 478.11C152.02 469.51 160.26 460.42 167.7 450.92C174.13 442.71 178.81 433.35 184.22 424.39C186.48 420.64 192.92 410.79 193.11 406.75C193.18 405.24 192.43 403.81 191.75 402.5C189.46 398.1 187.05 390.82 182.96 387.78C180 385.58 171.57 385.66 167.84 384.98C157.92 383.16 146.2 382.37 136.17 378.74C128.04 375.8 118.68 372.74 111.34 368.11C96.15 358.54 81.26 346.33 72 330.68C66.41 321.22 61.62 311.88 58.46 301.25C57.53 298.11 54.93 292.01 58.16 289.41C59.46 288.37 61.05 288.27 62.57 287.78C71.7 284.88 80.47 283.17 90.25 283.07C132.12 282.64 164.49 310.34 180.64 347.28C182.29 351.07 184.68 355.38 185.8 359.28C187.89 366.58 188.86 374.9 192.57 381.68C194.14 384.54 196.96 390.5 200.25 391.31C203.36 387.12 206.3 376.45 208.25 371.25C213.44 357.45 217.01 342.93 221.2 328.75C223.12 322.21 226.89 312.03 226.63 305.25C224.7 302.8 221.77 301.05 219.83 298.81C214.75 292.95 209.28 286.78 204.18 280.71C201.25 277.22 198 270.11 194.74 267.5C191.55 264.93 187.77 263.11 184.41 260.77C177.23 255.78 170.48 250.61 163.64 245.11C162.12 243.89 160.2 243.17 158.79 241.86C132.09 216.89 115.48 187.14 114.85 149.75C114.62 136.15 116.9 122.88 120.7 109.91C121.92 105.73 123.58 99.43 126.75 96.25C130.83 95.88 134.88 98.24 138.48 99.76C148.34 103.92 157.38 110.04 165.68 116.82C167.73 118.49 168.97 121.04 171.12 122.59C176.61 126.57 179.27 133.35 183.83 138.39C188.95 144.06 192.27 152.51 195.11 159.66C200.55 173.33 204.7 190.56 205.84 205.25C206.85 218.2 206.02 231.71 206.08 244.75C206.1 249.36 205.11 254.62 206.16 259.15C206.9 262.35 209.81 264.53 211.69 267.04C216.63 273.65 222.03 279.88 228.22 285.1C228.99 285.74 229.31 286.75 230.25 287.37C233.02 285.19 232.29 278.03 233.14 274.74C235.5 265.56 236.87 255.99 238.13 246.26C239.76 233.68 241.9 221.4 243.35 208.75C243.75 205.25 245.43 200.7 244.89 197.26C244.35 193.84 242.11 190.85 241 187.66C239.1 182.24 236.88 176.63 234.95 171.16C228.27 152.13 224.1 130.1 226.32 109.75C228.08 93.64 233.36 77.78 240.31 63.17C242.28 59.05 251.72 46.11 252 43.25C256.21 39.7 259.54 34.71 263.29 30.53C269.22 23.91 276.79 17.28 284.53 12.75C287.89 10.78 293.16 5.27 297.25 5.81C299.74 6.14 300.23 9.15 301.32 10.93C304.77 16.56 306.96 23.37 309.2 29.64C318.44 55.48 319.74 83.56 313.78 110.11C308.64 133.03 297.56 154.61 282.78 172.64C277.07 179.61 270.56 186.41 264.88 193.22C263.21 195.22 259.98 196.65 258.76 199C257.26 201.87 258.18 206.83 257.8 210.2C256.76 219.38 256.03 228.6 254.91 237.76C251.22 267.82 245.16 297.13 238.76 326.58C235.08 343.52 229.6 360.24 223.8 376.64C222.56 380.15 217.32 389.92 217.95 393.25ZM272.75 285.63C270.69 282.29 273.41 277.34 274.76 274.01C275.82 271.37 276.27 268.45 277.22 265.87C279.54 259.6 282.83 253.24 285.83 247.1C305.48 206.86 342.77 174.27 388.25 168.01C398.71 166.56 420.52 164.57 429.87 168.83C433 170.26 438.98 169.49 440.68 173.05C442.3 176.46 439.13 184.87 438.2 188.37C436.8 193.65 435.92 199.74 433.83 204.72C431.13 211.17 427.68 217.36 424.23 223.45C410.12 248.34 385.13 265.32 358.84 274.79C351.42 277.46 343.19 279.01 335.74 280.85C328.24 282.69 319.03 282.43 311.27 283.15C302.84 283.94 294.3 283.74 285.93 284.72C281.74 285.21 276.9 287.46 272.75 285.63Z" fill="#f8ecd5" fill-rule="evenodd" stroke="#f8ecd5" stroke-width="0.25" stroke-linejoin="round"/>
</svg>