<?xml version="1.0" standalone="no"?>
<!DOCTYPE svg PUBLIC "-//W3C//DTD SVG 20010904//EN"
 "http://www.w3.org/TR/2001/REC-SVG-20010904/DTD/svg10.dtd">
<svg version="1.0" xmlns="http://www.w3.org/2000/svg"
 width="150.000000pt" height="149.000000pt" viewBox="0 0 150.000000 149.000000"
 preserveAspectRatio="xMidYMid meet">
<metadata>
Created by potrace 1.16, written by Peter Selinger 2001-2019
</metadata>
<g transform="translate(0.000000,149.000000) scale(0.100000,-0.100000)"
fill="#000000" stroke="none">
<path d="M0 745 l0 -745 750 0 750 0 0 745 0 745 -750 0 -750 0 0 -745z m900
668 c30 -81 36 -173 16 -250 -21 -83 -44 -127 -107 -202 -48 -58 -52 -66 -59
-134 -18 -157 -67 -377 -105 -469 -14 -35 28 -19 64 24 110 129 193 178 303
181 79 1 168 -26 168 -53 0 -56 -116 -167 -198 -190 -47 -13 -174 -13 -230 0
-37 9 -49 7 -91 -15 -41 -20 -55 -36 -81 -84 -65 -121 -180 -238 -196 -197 -4
10 14 37 52 80 33 35 76 92 96 127 38 63 38 63 20 93 -16 27 -26 32 -88 42
-128 22 -224 89 -271 192 -32 69 -28 84 26 95 129 26 266 -62 316 -202 9 -25
23 -62 32 -81 l16 -35 19 43 c10 23 29 80 41 126 l21 83 -47 60 c-26 33 -72
77 -102 98 -67 46 -107 90 -142 158 -25 46 -28 63 -28 147 0 57 5 108 13 127
13 29 16 31 42 21 39 -13 116 -82 146 -130 36 -56 54 -140 54 -248 1 -93 1
-96 35 -135 18 -22 37 -36 41 -33 3 4 15 63 25 132 17 120 17 126 -1 173 -10
26 -24 76 -30 110 -21 103 14 226 87 313 28 33 100 90 114 90 4 0 17 -26 29
-57z m360 -419 c31 -7 32 -8 26 -46 -8 -49 -47 -127 -85 -171 -60 -68 -172
-110 -325 -121 l-78 -6 6 28 c14 58 70 155 117 202 94 94 222 137 339 114z"/>
</g>
</svg>
