<?xml version="1.0" encoding="UTF-8"?>
<svg xmlns="http://www.w3.org/2000/svg" viewBox="0 0 88 114" width="88" height="114">
<path d="M54.75 1.5C62.09 8.84 59.89 26.44 54.73 34.48C52.98 37.23 46.7 42.81 46.09 45.34C45.75 46.77 46.21 48.3 45.98 49.73C44.97 56.19 44.19 62.73 42.91 69.16C41.64 75.48 38.76 81.44 37.5 87.75C41.81 88.33 46.93 78.88 50.52 76.27C59.17 69.95 69.57 69.31 79 74.25C76.96 84.46 64.78 91 55.25 91C49.39 91 44.46 87.83 38.83 90.58C32.1 93.86 30.1 103.15 24.75 108.5C22.73 110.52 19.63 114.38 17 111.75C17.68 108.58 21.5 106.77 23.5 104.25C25.5 101.73 31.49 94.35 31.47 91.25C31.46 89.99 30.11 88.71 29.75 87.5C26.2 85.81 21.69 85.85 17.84 84.91C10 82.97 1 73.48 1 65.25C11.09 60.2 22.9 66.56 27.73 76.02C29.62 79.7 30.1 84.23 32.75 87.5C34.69 85.56 35.24 82.4 36.09 79.84C36.76 77.85 39.41 70.56 38.91 68.84C38.29 66.74 35.53 65.22 34.27 63.48C29.48 56.92 21.12 54.01 17.27 46.48C12.69 37.54 14.15 31.52 16 22.25C20.26 21.4 24.91 25.25 27.27 28.48C31.73 34.6 33.31 39.79 34.48 47.27C35.47 53.54 32.71 60.48 39.75 64C41.15 61.2 43.61 46.28 42.91 43.34C41.92 39.2 39.68 35.5 39.02 31.23C37.29 20.19 43.99 5.71 54.75 1.5ZM86.75 38.5C87.34 41.45 86.16 44.13 85.09 46.84C81.13 56.97 71.81 61.17 61.84 63.09C58.6 63.72 51.83 65.45 49 63.25C51.84 58.72 52.99 53.51 56.27 49.02C62.68 40.23 76.29 34.61 86.75 38.5Z" fill="#ffffff" fill-rule="evenodd" stroke="#ffffff" stroke-width="0.25" stroke-linejoin="round"/>
</svg>